<?xml version="1.0" encoding="UTF-8" standalone="no"?>
<!-- Created with Inkscape (http://www.inkscape.org/) -->

<svg
   xmlns:dc="http://purl.org/dc/elements/1.1/"
   xmlns:cc="http://creativecommons.org/ns#"
   xmlns:rdf="http://www.w3.org/1999/02/22-rdf-syntax-ns#"
   xmlns:svg="http://www.w3.org/2000/svg"
   xmlns="http://www.w3.org/2000/svg"
   xmlns:sodipodi="http://sodipodi.sourceforge.net/DTD/sodipodi-0.dtd"
   xmlns:inkscape="http://www.inkscape.org/namespaces/inkscape"
   width="864.97021"
   height="982.88464"
   id="svg3762"
   version="1.1"
   inkscape:version="0.48.5 r10040"
   sodipodi:docname="New document 1">
  <defs
     id="defs3764">
    <filter
       inkscape:collect="always"
       id="filter13836"
       x="-0.3026087"
       width="1.6052175"
       y="-0.3026087"
       height="1.6052175"
       color-interpolation-filters="sRGB">
      <feGaussianBlur
         inkscape:collect="always"
         stdDeviation="83.431025"
         id="feGaussianBlur13838" />
    </filter>
    <clipPath
       clipPathUnits="userSpaceOnUse"
       id="clipPath4660">
      <path
         sodipodi:nodetypes="ccccc"
         inkscape:connector-curvature="0"
         id="path4662"
         d="m -140.96078,40.191783 c 5.3252,353.713047 0,650.728047 0,982.884617 l 1142.04878,0 c -24.2181,-310.22233 0,-598.42068 0,-982.884617 z"
         style="color:#000000;fill:#c83737;fill-opacity:1;fill-rule:nonzero;stroke:none;stroke-width:40;marker:none;visibility:visible;display:inline;overflow:visible;enable-background:accumulate" />
    </clipPath>
  </defs>
  <sodipodi:namedview
     id="base"
     pagecolor="#ffffff"
     bordercolor="#666666"
     borderopacity="1.0"
     inkscape:pageopacity="0.0"
     inkscape:pageshadow="2"
     inkscape:zoom="0.49497475"
     inkscape:cx="806.50314"
     inkscape:cy="540.67664"
     inkscape:document-units="px"
     inkscape:current-layer="layer1"
     showgrid="false"
     fit-margin-top="0"
     fit-margin-left="15"
     fit-margin-right="15"
     fit-margin-bottom="0"
     inkscape:window-width="1920"
     inkscape:window-height="1017"
     inkscape:window-x="-8"
     inkscape:window-y="-8"
     inkscape:window-maximized="1" />
  <metadata
     id="metadata3767">
    <rdf:RDF>
      <cc:Work
         rdf:about="">
        <dc:format>image/svg+xml</dc:format>
        <dc:type
           rdf:resource="http://purl.org/dc/dcmitype/StillImage" />
        <dc:title></dc:title>
      </cc:Work>
    </rdf:RDF>
  </metadata>
  <g
     inkscape:label="Layer 1"
     inkscape:groupmode="layer"
     id="layer1"
     transform="translate(69.197008,-40.191745)">
    <path
       style="color:#000000;fill:#f1e3a6;fill-opacity:1;fill-rule:nonzero;stroke:#000000;stroke-width:20;stroke-linejoin:round;stroke-miterlimit:4;stroke-dasharray:none;marker:none;visibility:visible;display:inline;overflow:visible;enable-background:accumulate"
       d="m -37.925225,40.191745 -6.271783,269.348485 4.703837,66.52572 10.717173,10.30365 -9.149227,12.76756 1.464565,73.38333 7.443439,5.20351 -7.236678,4.82445 0.913202,45.64274 -2.584528,123.47147 0,21.95124 -3.88123,32.49612 16.666024,3.20481 -12.784794,6.77147 0,104.81117 c 2.039219,10.42851 3.721717,17.78154 3.721717,17.78154 l -1.292262,40.11186 c 0,0 5.107928,43.37789 -2.429455,51.56992 l 0,33.94349 c 2.101227,4.01353 4.376465,8.28767 4.376465,8.28767 0,0 -1.848888,1.57229 -4.376465,3.46328 l 0,47.02117 808.698435,0 0,-31.2211 -17.07507,-5.68594 c 0,0 8.42822,-4.21332 17.07507,-6.89211 l -6.4687,-113.59855 -26.13127,-6.28901 c 0,0 18.74654,-2.52318 27.42502,-4.85891 l 5.17495,-167.94256 c -0.0801,-0.56741 -0.25844,-1.86085 -0.25844,-1.86085 l -5.18631,-16.81666 -12.92262,-7.77081 9.04579,-3.87679 c 0,0 2.59736,-10.34646 6.47855,-18.10892 1.04148,-2.08274 -3.18613,-29.20959 -2.33192,-36.32914 l 5.17495,-77.90694 -1.55073,-15.14533 -2.58454,-21.98571 -11.64756,-9.06307 -20.71071,-9.04584 16.83388,0 19.65966,-9.83843 0,-77.13951 c -0.90366,-3.63892 -1.55073,-6.18564 -1.55073,-6.18564 l -3.89402,-41.38689 0,-32.34104 c 0,0 2.70056,-6.77759 5.44475,-16.81665 l 0,-244.778255 z"
       id="path3818"
       inkscape:connector-curvature="0"
       sodipodi:nodetypes="cccccccccccccccccccccccccccccccccccccccccccccccccc"
       clip-path="url(#clipPath4660)" />
    <path
       sodipodi:nodetypes="cccccccccccccccccccccccccccccccccccccccccccccccccc"
       inkscape:connector-curvature="0"
       id="path19001"
       d="m -37.925225,40.191745 -6.271783,269.348485 4.703837,66.52572 10.717173,10.30365 -9.149227,12.76756 1.464565,73.38333 7.443439,5.20351 -7.236678,4.82445 0.913202,45.64274 -2.584528,123.47147 0,21.95124 -3.88123,32.49612 16.666024,3.20481 -12.784794,6.77147 0,104.81117 c 2.039219,10.42851 3.721717,17.78154 3.721717,17.78154 l -1.292262,40.11186 c 0,0 5.107928,43.37789 -2.429455,51.56992 l 0,33.94349 c 2.101227,4.01353 4.376465,8.28767 4.376465,8.28767 0,0 -1.848888,1.57229 -4.376465,3.46328 l 0,47.02117 808.698435,0 0,-31.2211 -17.07507,-5.68594 c 0,0 8.42822,-4.21332 17.07507,-6.89211 l -6.4687,-113.59855 -26.13127,-6.28901 c 0,0 18.74654,-2.52318 27.42502,-4.85891 l 5.17495,-167.94256 c -0.0801,-0.56741 -0.25844,-1.86085 -0.25844,-1.86085 l -5.18631,-16.81666 -12.92262,-7.77081 9.04579,-3.87679 c 0,0 2.59736,-10.34646 6.47855,-18.10892 1.04148,-2.08274 -3.18613,-29.20959 -2.33192,-36.32914 l 5.17495,-77.90694 -1.55073,-15.14533 -2.58454,-21.98571 -11.64756,-9.06307 -20.71071,-9.04584 16.83388,0 19.65966,-9.83843 0,-77.13951 c -0.90366,-3.63892 -1.55073,-6.18564 -1.55073,-6.18564 l -3.89402,-41.38689 0,-32.34104 c 0,0 2.70056,-6.77759 5.44475,-16.81665 l 0,-244.778255 z"
       style="color:#000000;fill:#f1e3a6;fill-opacity:1;fill-rule:nonzero;stroke:none;stroke-width:40;marker:none;visibility:visible;display:inline;overflow:visible;enable-background:accumulate" />
    <path
       id="path19003"
       d="m -39.635342,374.12997 0.139998,1.94247 10.727359,10.28986 -9.152379,12.77484 1.452481,73.37653 7.454901,5.21493 -7.244904,4.81244 0.874988,43.62692 c 1.827687,-16.37187 3.341767,-28.19007 4.182445,-30.71209 3.716514,-11.14954 5.583519,-7.42756 14.874804,-13.00233 9.2912801,-5.57477 -16.729779,-14.85731 -16.729779,-14.85731 l -3.709952,-59.46421 16.71228,-20.45723 -19.582242,-13.54482 z m -0.927487,321.64576 -1.242484,10.34236 16.65978,3.20246 -4.199944,2.22247 c 12.144072,-1.76853 28.1911952,-4.8073 37.1695098,-6.08992 9.7662822,-1.39518 -28.6325178,-6.98037 -48.3868618,-9.67737 z"
       style="color:#000000;fill:#fff4c9;fill-opacity:1;fill-rule:nonzero;stroke:none;stroke-width:40;marker:none;visibility:visible;display:inline;overflow:visible;enable-background:accumulate"
       inkscape:connector-curvature="0" />
    <path
       id="path19005"
       d="m 9.6090093,707.20308 c -0.1072946,0.01 -0.3929244,0.0469 -0.8574887,0.10499 -0.2322821,0.029 -0.4764848,0.0688 -0.7524901,0.14 0.9722273,-0.13973 1.8245674,-0.26496 1.6099788,-0.24499 z m -1.6099788,0.24499 c -6.3194786,0.90826 -33.9150685,4.67002 -39.1994835,5.42493 -0.267245,0.0382 -0.533443,0.0693 -0.804989,0.0875 l -5.914922,3.13246 0,36.99451 c 6.08395,-10.15308 8.592386,-21.62971 8.592386,-21.62971 0,0 28.77085162,-21.80253 37.3270085,-24.00969 z"
       style="opacity:0.81415926;color:#000000;fill:#d3c179;fill-opacity:1;fill-rule:nonzero;stroke:none;stroke-width:40;marker:none;visibility:visible;display:inline;overflow:visible;enable-background:accumulate"
       inkscape:connector-curvature="0" />
    <path
       id="path19007"
       d="m 690.73503,465.72376 c -0.40112,0 -0.18222,0.009 0.385,0.035 -0.14823,-0.0175 -0.29058,-0.035 -0.385,-0.035 z m 0.47252,0.0525 c 6.10812,0.81835 49.8538,13.92221 54.35423,14.8223 4.6457,0.92913 13.00236,10.21987 13.00236,10.21987 0,0 3.70995,26.94308 3.70995,30.6596 0,3.71651 0.94168,43.66247 2.79996,63.17416 0.28252,2.96633 0.62882,6.1107 1.04999,9.25738 l 4.65494,-69.99908 -1.55751,-15.1373 -2.58997,-21.97971 -11.63731,-9.06488 -14.10482,-6.15992 c -13.59169,-4.38587 -44.79689,-5.57047 -49.68182,-5.79242 z"
       style="opacity:0.81415926;color:#000000;fill:#fff4c9;fill-opacity:1;fill-rule:nonzero;stroke:none;stroke-width:40;marker:none;visibility:visible;display:inline;overflow:visible;enable-background:accumulate"
       inkscape:connector-curvature="0" />
    <path
       style="opacity:0.62831882;color:#000000;fill:#fff2c1;fill-opacity:1;fill-rule:nonzero;stroke:none;stroke-width:30;marker:none;visibility:visible;display:inline;overflow:visible;filter:url(#filter13836);enable-background:accumulate"
       d="m 612.84375,24.375 c -8.10681,0.114135 -16.21248,0.4694 -24.28797,1.202519 -8.80293,0.76095 -17.58316,1.817424 -26.29693,3.284815 -8.62154,1.433389 -17.18986,3.195043 -25.6626,5.342412 -9.33352,2.320075 -18.56558,5.047884 -27.6533,8.197072 -6.48926,2.22727 -12.9016,4.673928 -19.23149,7.320624 -10.30599,4.279333 -20.3522,9.18519 -30.2033,14.408475 -10.0643,5.471626 -19.85928,11.438521 -29.31612,17.904611 -4.47674,3.081281 -8.86396,6.291904 -13.21504,9.548284 -3.64923,2.770293 -7.15393,5.692223 -10.71194,8.590048 -8.59509,7.11072 -16.84162,14.64232 -24.67768,22.58251 -8.42165,8.5235 -16.37236,17.50949 -23.85376,26.86851 -5.74531,7.07816 -11.10381,14.52824 -16.1938,22.11227 -5.59165,8.45106 -10.91409,17.10186 -15.69501,26.03258 -4.24551,8.01165 -8.31941,16.11938 -11.95121,24.42976 -5.14615,11.72077 -9.648,23.72858 -13.3876,35.97225 -3.18207,10.39458 -5.86012,20.94392 -7.99525,31.60319 -2.29106,11.11164 -3.8744,22.36197 -4.98654,33.65008 -0.70361,7.06794 -1.13363,14.16343 -1.36051,21.26221 -0.20378,6.6065 -0.26127,13.21752 -0.0529,19.82475 0.16787,6.27632 0.49302,12.5481 1.03823,18.80337 0.65685,8.23216 1.69341,16.43269 2.9689,24.59008 1.7593,11.0427 4.09401,21.993 6.92568,32.80954 2.44384,9.12315 5.25887,18.1482 8.45368,27.03628 3.15949,8.75369 6.67926,17.37937 10.55281,25.84139 2.65479,5.81081 5.55259,11.50476 8.51072,17.16588 2.22161,4.30641 4.63727,8.52815 7.08928,12.71318 4.12933,6.94502 8.44839,13.77881 13.08283,20.39912 5.00925,7.26258 10.30428,14.32869 15.94795,21.09199 9.37714,11.43177 19.47102,22.28316 30.29254,32.36129 3.36751,3.1394 6.79319,6.2204 10.29237,9.21227 4.44674,3.87299 9.06598,7.58601 13.65643,11.25478 7.2985,5.57975 14.77039,10.9372 22.48806,15.92353 7.83288,5.04717 15.84132,9.83098 24.10204,14.14732 4.09539,2.20077 8.25985,4.275 12.45471,6.28742 11.71069,5.62587 23.74801,10.58057 36.0497,14.76243 4.90817,1.65985 9.84122,3.24349 14.82459,4.66327 7.45762,2.12822 14.97892,4.04506 22.56113,5.67595 9.17712,1.9577 18.44319,3.49009 27.74783,4.69597 11.34033,1.47618 22.76183,2.26301 34.19201,2.55148 9.76913,0.22752 19.5492,0.0649 29.29962,-0.59809 7.02171,-0.45598 14.02968,-1.13415 21.0109,-2.01455 7.58629,-0.98066 15.13772,-2.21906 22.64543,-3.68408 7.03023,-1.4165 14.01605,-3.0467 20.94165,-4.90936 11.50378,-3.04359 22.80696,-6.82121 33.90812,-11.09927 11.6131,-4.55662 22.97965,-9.74077 34.03281,-15.5246 12.11406,-6.28959 23.7758,-13.46482 34.98116,-21.26432 5.75576,-3.93993 11.32473,-8.14752 16.77548,-12.49799 3.23811,-2.70332 6.59601,-5.3397 9.7689,-8.15024 7.32025,-6.23379 14.35243,-12.80415 21.04241,-19.71057 4.92346,-4.97787 9.63589,-10.16113 14.23251,-15.44097 5.61496,-6.65319 11.16297,-13.32782 16.28902,-20.3704 4.0014,-5.42467 7.77487,-11.01499 11.46606,-16.65373 4.25067,-6.68779 8.37782,-13.47359 12.13561,-20.44483 3.18723,-5.97398 6.25982,-12.01022 9.16851,-18.12466 3.24722,-6.98805 6.29051,-14.07254 9.06868,-21.26038 2.54429,-6.66242 4.92334,-13.38776 7.04113,-20.19858 2.90414,-9.15203 5.34381,-18.45101 7.40596,-27.82772 1.58705,-7.16673 2.85656,-14.40167 3.99023,-21.65178 1.00255,-6.64655 1.80558,-13.32182 2.37814,-20.0194 0.83803,-9.18239 1.23725,-18.40205 1.30198,-27.62169 0.0286,-7.12781 -0.14352,-14.25838 -0.57068,-21.37422 -0.40432,-7.06884 -1.0243,-14.12782 -1.87126,-21.15748 -1.26511,-10.14805 -2.92681,-20.24782 -5.12747,-30.23664 -1.92919,-8.93062 -4.28335,-17.76777 -6.93655,-26.50982 -5.88948,-19.06912 -13.45743,-37.625 -22.70423,-55.3145 -4.66494,-9.20764 -9.90412,-18.12907 -15.51392,-26.7975 -4.96328,-7.74866 -10.34982,-15.21854 -15.90154,-22.55429 -2.52102,-3.25349 -5.20433,-6.36388 -7.79683,-9.57342 -5.66706,-6.8468 -11.63617,-13.4406 -17.85239,-19.79248 -4.71492,-4.88186 -9.61916,-9.58197 -14.64898,-14.13786 -6.56516,-5.95459 -13.43325,-11.597751 -20.35392,-17.102403 -5.32794,-4.109226 -10.81373,-8.011076 -16.35557,-11.824576 -7.37894,-4.954313 -14.93174,-9.653336 -22.66529,-14.034634 -8.91838,-5.026395 -18.08402,-9.610575 -27.41354,-13.832214 -5.7221,-2.538814 -11.49432,-4.963156 -17.34393,-7.194123 -7.05232,-2.701836 -14.2029,-5.144066 -21.43004,-7.336 -8.92688,-2.6972 -17.95071,-5.080961 -27.07606,-7.009374 -8.51493,-1.836409 -17.10939,-3.291474 -25.74485,-4.428645 -8.63561,-1.112819 -17.31101,-1.925246 -26.00468,-2.410548 C 627.565,24.452049 620.20234,24.262474 612.84371,24.375 z"
       id="path19013"
       inkscape:connector-curvature="0"
       transform="matrix(0.71748114,0,0,0.8911445,-79.245498,220.51692)" />
  </g>
</svg>
