<?xml version="1.0" encoding="UTF-8" standalone="no"?>
<!-- Created with Inkscape (http://www.inkscape.org/) -->

<svg
   xmlns:dc="http://purl.org/dc/elements/1.1/"
   xmlns:cc="http://creativecommons.org/ns#"
   xmlns:rdf="http://www.w3.org/1999/02/22-rdf-syntax-ns#"
   xmlns:svg="http://www.w3.org/2000/svg"
   xmlns="http://www.w3.org/2000/svg"
   xmlns:sodipodi="http://sodipodi.sourceforge.net/DTD/sodipodi-0.dtd"
   xmlns:inkscape="http://www.inkscape.org/namespaces/inkscape"
   width="1131.2925"
   height="284.48978"
   id="svg3762"
   version="1.1"
   inkscape:version="0.48.5 r10040"
   sodipodi:docname="scroll_bottom.svg">
  <defs
     id="defs3764">
    <filter
       inkscape:collect="always"
       id="filter13836"
       x="-0.3026087"
       width="1.6052175"
       y="-0.3026087"
       height="1.6052175"
       color-interpolation-filters="sRGB">
      <feGaussianBlur
         inkscape:collect="always"
         stdDeviation="83.431025"
         id="feGaussianBlur13838" />
    </filter>
    <clipPath
       clipPathUnits="userSpaceOnUse"
       id="clipPath4660">
      <path
         sodipodi:nodetypes="ccccc"
         inkscape:connector-curvature="0"
         id="path4662"
         d="m -140.96078,40.191783 c 5.3252,353.713047 0,650.728047 0,982.884617 l 1142.04878,0 c -24.2181,-310.22233 0,-598.42068 0,-982.884617 z"
         style="color:#000000;fill:#c83737;fill-opacity:1;fill-rule:nonzero;stroke:none;stroke-width:40;marker:none;visibility:visible;display:inline;overflow:visible;enable-background:accumulate" />
    </clipPath>
    <clipPath
       clipPathUnits="userSpaceOnUse"
       id="clipPath5234">
      <path
         style="opacity:0.60619465;color:#000000;fill:#f1e3a6;fill-opacity:1;fill-rule:nonzero;stroke:none;stroke-width:30;marker:none;visibility:visible;display:inline;overflow:visible;enable-background:accumulate"
         d="m -224.74325,-912.862 -26.90482,16.09822 9.42578,11.62516 3.80339,-2.33167 -0.0661,-0.0827 22.83685,-14.41979 -9.09505,-10.88927 z"
         id="path5236"
         inkscape:connector-curvature="0" />
    </clipPath>
    <clipPath
       clipPathUnits="userSpaceOnUse"
       id="clipPath5276">
      <path
         style="opacity:0.60619465;color:#000000;fill:#f1e3a6;fill-opacity:1;fill-rule:nonzero;stroke:none;stroke-width:30;marker:none;visibility:visible;display:inline;overflow:visible;enable-background:accumulate"
         d="m -224.74325,-912.862 -26.90482,16.09822 9.42578,11.62516 3.80339,-2.33167 -0.0661,-0.0827 22.83685,-14.41979 -9.09505,-10.88927 z"
         id="path5278"
         inkscape:connector-curvature="0" />
    </clipPath>
    <clipPath
       clipPathUnits="userSpaceOnUse"
       id="clipPath5280">
      <path
         style="opacity:0.60619465;color:#000000;fill:#f1e3a6;fill-opacity:1;fill-rule:nonzero;stroke:none;stroke-width:30;marker:none;visibility:visible;display:inline;overflow:visible;enable-background:accumulate"
         d="m -224.74325,-912.862 -26.90482,16.09822 9.42578,11.62516 3.80339,-2.33167 -0.0661,-0.0827 22.83685,-14.41979 -9.09505,-10.88927 z"
         id="path5282"
         inkscape:connector-curvature="0" />
    </clipPath>
    <clipPath
       clipPathUnits="userSpaceOnUse"
       id="clipPath5234-2">
      <path
         style="opacity:0.60619465;color:#000000;fill:#f1e3a6;fill-opacity:1;fill-rule:nonzero;stroke:none;stroke-width:30;marker:none;visibility:visible;display:inline;overflow:visible;enable-background:accumulate"
         d="m -224.74325,-912.862 -26.90482,16.09822 9.42578,11.62516 3.80339,-2.33167 -0.0661,-0.0827 22.83685,-14.41979 -9.09505,-10.88927 z"
         id="path5236-2"
         inkscape:connector-curvature="0" />
    </clipPath>
  </defs>
  <sodipodi:namedview
     id="base"
     pagecolor="#ffffff"
     bordercolor="#666666"
     borderopacity="1.0"
     inkscape:pageopacity="0.0"
     inkscape:pageshadow="2"
     inkscape:zoom="0.7"
     inkscape:cx="723.04805"
     inkscape:cy="96.756019"
     inkscape:document-units="px"
     inkscape:current-layer="layer1"
     showgrid="false"
     fit-margin-top="15"
     fit-margin-left="15"
     fit-margin-right="15"
     fit-margin-bottom="15"
     inkscape:window-width="1920"
     inkscape:window-height="1017"
     inkscape:window-x="-8"
     inkscape:window-y="-8"
     inkscape:window-maximized="1" />
  <metadata
     id="metadata3767">
    <rdf:RDF>
      <cc:Work
         rdf:about="">
        <dc:format>image/svg+xml</dc:format>
        <dc:type
           rdf:resource="http://purl.org/dc/dcmitype/StillImage" />
        <dc:title></dc:title>
      </cc:Work>
    </rdf:RDF>
  </metadata>
  <g
     inkscape:label="Layer 1"
     inkscape:groupmode="layer"
     id="layer1"
     transform="translate(-258.98688,-753.39081)">
    <g
       id="g5679">
      <g
         transform="matrix(2.2593034,0,0,2.2593034,9.6959829,2088.2773)"
         id="g14156">
        <g
           id="g14067"
           transform="translate(0,44.777102)">
          <path
             style="color:#000000;fill:#f1e3a6;fill-opacity:1;fill-rule:nonzero;stroke:#120f06;stroke-width:37.38399886999999900;stroke-opacity:1;marker:none;visibility:visible;display:inline;overflow:visible;enable-background:accumulate;stroke-linejoin:round"
             d="m 2198.2188,-2402.1562 c -0.9594,0.013 -1.4688,0.094 -1.4688,0.094 1.2699,10.1589 -12.9419,21.4045 -39.4375,32.9375 l 2.9375,23.5 c 0,0 -16.8728,-8.0025 -28.5312,-13.5938 -29.9905,10.4781 -69.2578,21.0082 -115.5938,30.9688 l -10.1875,12.4688 -43.125,18.25 c 0,0 -6.6503,21.5761 -9.9687,31.5312 -3.3184,9.9551 -3.3126,-21.5625 -3.3126,-21.5625 0,0 -32.9941,-9.0745 -54.7812,-18.5 -144.8799,22.5422 -324.9192,64.7768 -501.0312,63.2969 -182.448,-1.5332 -442.68311,-67.6895 -635.7188,-102.1094 -10.00416,12.7209 -23.89251,27.5838 -25.90625,33.625 -2.80138,8.4042 -9.30907,-7.0363 -14.21875,-40.875 -129.45676,-23.7074 -220.125,-43.2812 -220.125,-43.2812 l -26.53125,63.0312 c -29.86523,106.1874 3.30081,301.9707 116.125,318.5625 0,0 759.90805,-53.9122 776.50005,-50.5937 16.5918,3.3184 796.4062,34 796.4062,34 92.9141,-3.3185 122.7657,-205.7227 96.2188,-292 -23.2286,-75.4929 -51.5356,-79.8409 -58.25,-79.75 z"
             transform="matrix(0.26458334,0,0,0.26458334,-6.3049604e-6,11.538634)"
             id="path14065"
             inkscape:connector-curvature="0"
             sodipodi:nodetypes="ccccccccsccscsccccscscc" />
          <path
             style="color:#000000;fill:#f1e3a6;fill-opacity:1;fill-rule:nonzero;stroke:none;stroke-width:37.38399887;marker:none;visibility:visible;display:inline;overflow:visible;enable-background:accumulate"
             d="m 2198.2188,-2402.1562 c -0.9594,0.013 -1.4688,0.094 -1.4688,0.094 1.2699,10.1589 -12.9419,21.4045 -39.4375,32.9375 l 2.9375,23.5 c 0,0 -16.8728,-8.0025 -28.5312,-13.5938 -29.9905,10.4781 -69.2578,21.0082 -115.5938,30.9688 l -10.1875,12.4688 -43.125,18.25 c 0,0 -6.6503,21.5761 -9.9687,31.5312 -3.3184,9.9551 -3.3126,-21.5625 -3.3126,-21.5625 0,0 -32.9941,-9.0745 -54.7812,-18.5 -144.8799,22.5422 -324.9192,38.2299 -501.0312,36.75 -182.448,-1.5332 -442.68311,-41.1426 -635.7188,-75.5625 -10.00416,12.7209 -23.89251,27.5838 -25.90625,33.625 -2.80138,8.4042 -9.30907,-7.0363 -14.21875,-40.875 -129.45676,-23.7074 -220.125,-43.2812 -220.125,-43.2812 0,0 -46.29,69.4789 -34.15625,194.625 8.63143,89.0234 50.05186,176.1307 123.75,186.9687 0,0 759.90805,-53.9122 776.50005,-50.5937 16.5918,3.3184 796.4062,34 796.4062,34 92.9141,-3.3185 122.7657,-205.7227 96.2188,-292 -23.2286,-75.4929 -51.5356,-79.8409 -58.25,-79.75 z"
             transform="matrix(0.26458334,0,0,0.26458334,-6.3049604e-6,11.538634)"
             id="path14063"
             inkscape:connector-curvature="0" />
          <path
             style="opacity:0.43362834;color:#000000;fill:#c3ac52;fill-opacity:1;fill-rule:nonzero;stroke:none;stroke-width:37.38399887;marker:none;visibility:visible;display:inline;overflow:visible;enable-background:accumulate"
             d="m 2265.3438,-2264.7812 c -4.7123,29.7623 -18.0008,70.396 -27.125,73.4374 -9.9552,3.3184 -48.1094,13.2813 -74.6563,13.2813 -26.5469,0 -424.7539,23.2383 -457.9375,29.875 -33.1836,6.6367 -466.2139,8.293 -504.375,1.6563 -37.3451,-6.4948 -703.90852,-35.2401 -737.0625,-48.9063 9.74498,87.1368 50.9335,171.004 123.15625,181.625 0,0 759.90795,-53.9123 776.50005,-50.5937 16.5918,3.3184 796.4062,34 796.4062,34 75.7733,-2.7064 109.5883,-137.8208 105.0938,-234.375 z"
             transform="matrix(0.26458334,0,0,0.26458334,-6.3049604e-6,11.538634)"
             id="path14116"
             inkscape:connector-curvature="0" />
          <path
             style="color:#000000;fill:#fcf2cc;fill-opacity:1;fill-rule:nonzero;stroke:none;stroke-width:37.38399887;marker:none;visibility:visible;display:inline;overflow:visible;enable-background:accumulate"
             d="m 2198.2188,-2402.1562 c -0.9595,0.013 -1.4688,0.094 -1.4688,0.094 1.2699,10.1589 -12.9419,21.4045 -39.4375,32.9375 l 2.9375,23.5 c 0,0 -16.8728,-8.0024 -28.5312,-13.5938 -29.9906,10.4782 -69.2578,21.0082 -115.5938,30.9688 l -10.1875,12.4688 -43.125,18.25 c 0,0 -6.6503,21.5761 -9.9687,31.5312 -3.3185,9.9551 -3.3126,-21.5625 -3.3126,-21.5625 0,0 -32.9941,-9.0745 -54.7812,-18.5 -144.8799,22.5422 -324.9192,38.2299 -501.0312,36.75 -182.4481,-1.5332 -442.68311,-41.1426 -635.7188,-75.5625 -10.00416,12.7209 -23.89251,27.5838 -25.90625,33.625 -2.80138,8.4042 -9.30907,-7.0363 -14.21875,-40.875 -129.45676,-23.7074 -220.125,-43.2812 -220.125,-43.2812 0,0 -46.29,69.4788 -34.15625,194.625 2.86262,29.5246 9.31795,58.8279 19.375,85.2187 -15.38429,-83.6082 8.01315,-208.245 19.75,-231.7187 13.27343,-26.547 13.28125,-23.25 13.28125,-23.25 l 187.5,34.8437 23.21875,46.4687 36.5,-36.5 c 0,0 356.72175,72.9883 620.53125,79.625 263.8095,6.6369 512.707,-51.415 519.3438,-46.4374 6.6368,4.9776 39.8124,16.5937 39.8124,16.5937 l 16.5938,26.5313 c 0,0 3.3232,-33.1788 14.9375,-38.1563 11.6142,-4.9776 36.4912,-3.3261 41.4687,-13.2813 4.9777,-9.955 8.3007,-19.9062 14.9376,-19.9062 6.6367,0 99.5312,-23.2188 99.5312,-23.2188 0,0 43.1562,29.8614 43.1562,19.9063 0,-9.9551 3.3126,-26.5625 3.3126,-26.5625 l 28.2187,-24.875 c 0,0 68.0009,54.7481 49.75,197.4375 -2.4916,19.48 -4.919,36.8217 -7.2813,52.3437 21.0382,-65.4803 23.6427,-148.8957 8.9376,-196.6874 -23.2287,-75.493 -51.5356,-79.841 -58.25,-79.75 z"
             transform="matrix(0.26458334,0,0,0.26458334,-6.3049604e-6,11.538634)"
             id="path14111"
             inkscape:connector-curvature="0" />
          <path
             style="opacity:0.19026549;color:#000000;fill:#8c7e45;fill-opacity:1;fill-rule:nonzero;stroke:none;stroke-width:37.38399887;marker:none;visibility:visible;display:inline;overflow:visible;enable-background:accumulate"
             d="m 2259.625,-2175.875 c -0.9739,2.9292 -1.949,5.8158 -3.1562,9.4375 -13.2735,39.8203 -61.377,107.8408 -77.9688,109.5 -16.5918,1.6592 -778.1631,-29.875 -809.6875,-29.875 -31.5244,0 -781.47657,49.793 -794.75,43.1563 -13.27344,-6.6368 -71.33106,-54.7676 -96.21875,-97.9063 -1.90931,-3.3095 -3.62871,-5.4919 -5.125,-6.625 17.38372,68.2172 55.67241,125.7055 114.625,134.375 0,0 759.90795,-53.9123 776.50005,-50.5937 16.5918,3.3184 796.4062,34 796.4062,34 53.9565,-1.9271 86.6464,-70.996 99.375,-145.4688 z"
             transform="matrix(0.26458334,0,0,0.26458334,-6.3049604e-6,11.538634)"
             id="path14139"
             inkscape:connector-curvature="0" />
        </g>
        <path
           sodipodi:type="arc"
           style="color:#000000;fill:#ddcb81;fill-opacity:1;fill-rule:nonzero;stroke:none;stroke-width:37.38399887;marker:none;visibility:visible;display:inline;overflow:visible;enable-background:accumulate"
           id="path14119"
           sodipodi:cx="567.43933"
           sodipodi:cy="-2197.97"
           sodipodi:rx="31.524406"
           sodipodi:ry="23.22851"
           d="m 598.96374,-2197.97 c 0,12.8288 -14.11396,23.2285 -31.52441,23.2285 -17.41045,0 -31.52441,-10.3997 -31.52441,-23.2285 0,-12.8287 14.11396,-23.2285 31.52441,-23.2285 17.41045,0 31.52441,10.3998 31.52441,23.2285 z"
           transform="matrix(0.26458334,0,0,0.33072918,5.2678881,205.43372)" />
        <path
           sodipodi:type="arc"
           style="color:#000000;fill:#ddcb81;fill-opacity:1;fill-rule:nonzero;stroke:none;stroke-width:37.38399887;marker:none;visibility:visible;display:inline;overflow:visible;enable-background:accumulate"
           id="path14121"
           sodipodi:cx="2032.4946"
           sodipodi:cy="-2178.8894"
           sodipodi:rx="28.206047"
           sodipodi:ry="20.73974"
           d="m 2060.7007,-2178.8894 c 0,11.4542 -12.6283,20.7397 -28.2061,20.7397 -15.5777,0 -28.206,-9.2855 -28.206,-20.7397 0,-11.4542 12.6283,-20.7397 28.206,-20.7397 15.5778,0 28.2061,9.2855 28.2061,20.7397 z"
           transform="matrix(0.26458334,0,0,0.26458334,-6.3049604e-6,56.315736)" />
        <path
           sodipodi:type="arc"
           style="color:#000000;fill:#ddcb81;fill-opacity:1;fill-rule:nonzero;stroke:none;stroke-width:37.38399887;marker:none;visibility:visible;display:inline;overflow:visible;enable-background:accumulate"
           id="path14123"
           sodipodi:cx="2083.0996"
           sodipodi:cy="-2210.4138"
           sodipodi:rx="9.1254864"
           sodipodi:ry="9.1254864"
           d="m 2092.2251,-2210.4138 c 0,5.0398 -4.0856,9.1255 -9.1255,9.1255 -5.0399,0 -9.1255,-4.0857 -9.1255,-9.1255 0,-5.0399 4.0856,-9.1255 9.1255,-9.1255 5.0399,0 9.1255,4.0856 9.1255,9.1255 z"
           transform="matrix(0.26458334,0,0,0.26458334,-6.3049604e-6,56.315736)" />
        <path
           sodipodi:type="arc"
           style="color:#000000;fill:#ddcb81;fill-opacity:1;fill-rule:nonzero;stroke:none;stroke-width:37.38399887;marker:none;visibility:visible;display:inline;overflow:visible;enable-background:accumulate"
           id="path14127"
           sodipodi:cx="2184.3096"
           sodipodi:cy="-2187.1853"
           sodipodi:rx="30.694817"
           sodipodi:ry="30.694817"
           d="m 2215.0044,-2187.1853 c 0,16.9523 -13.7426,30.6948 -30.6948,30.6948 -16.9523,0 -30.6948,-13.7425 -30.6948,-30.6948 0,-16.9523 13.7425,-30.6948 30.6948,-30.6948 16.9522,0 30.6948,13.7425 30.6948,30.6948 z"
           transform="matrix(0.26458334,0,0,0.26458334,-6.3049604e-6,56.315736)" />
        <path
           sodipodi:type="arc"
           style="color:#000000;fill:#ddcb81;fill-opacity:1;fill-rule:nonzero;stroke:none;stroke-width:37.38399887;marker:none;visibility:visible;display:inline;overflow:visible;enable-background:accumulate"
           id="path14129"
           sodipodi:cx="519.32312"
           sodipodi:cy="-2236.1311"
           sodipodi:rx="13.273435"
           sodipodi:ry="14.932613"
           d="m 532.59655,-2236.1311 c 0,8.2471 -5.94271,14.9326 -13.27343,14.9326 -7.33072,0 -13.27343,-6.6855 -13.27343,-14.9326 0,-8.2471 5.94271,-14.9326 13.27343,-14.9326 7.33072,0 13.27343,6.6855 13.27343,14.9326 z"
           transform="matrix(0.26458334,0,0,0.26458334,-6.3049604e-6,56.315736)" />
        <path
           sodipodi:type="arc"
           style="color:#000000;fill:#ddcb81;fill-opacity:1;fill-rule:nonzero;stroke:none;stroke-width:37.38399887;marker:none;visibility:visible;display:inline;overflow:visible;enable-background:accumulate"
           id="path14131"
           sodipodi:cx="693.53693"
           sodipodi:cy="-2190.5037"
           sodipodi:rx="34.842766"
           sodipodi:ry="32.353996"
           d="m 728.37969,-2190.5037 c 0,17.8687 -15.59964,32.354 -34.84276,32.354 -19.24313,0 -34.84277,-14.4853 -34.84277,-32.354 0,-17.8686 15.59964,-32.354 34.84277,-32.354 19.24312,0 34.84276,14.4854 34.84276,32.354 z"
           transform="matrix(0.26458334,0,0,0.26458334,-5.2679007,64.217578)" />
        <path
           sodipodi:type="arc"
           style="color:#000000;fill:#f1e3a6;fill-opacity:1;fill-rule:nonzero;stroke:none;stroke-width:37.38399887;marker:none;visibility:visible;display:inline;overflow:visible;enable-background:accumulate"
           id="path14133"
           sodipodi:cx="743.31232"
           sodipodi:cy="-2148.1946"
           sodipodi:rx="16.591793"
           sodipodi:ry="16.591793"
           d="m 759.90411,-2148.1946 c 0,9.1634 -7.4284,16.5918 -16.59179,16.5918 -9.1634,0 -16.5918,-7.4284 -16.5918,-16.5918 0,-9.1634 7.4284,-16.5918 16.5918,-16.5918 9.16339,0 16.59179,7.4284 16.59179,16.5918 z"
           transform="matrix(0.26458334,0,0,0.26458334,-6.3049604e-6,56.315736)" />
        <path
           sodipodi:type="arc"
           style="color:#000000;fill:#f1e3a6;fill-opacity:1;fill-rule:nonzero;stroke:none;stroke-width:37.38399887;marker:none;visibility:visible;display:inline;overflow:visible;enable-background:accumulate"
           id="path14135"
           sodipodi:cx="2088.9067"
           sodipodi:cy="-2173.0823"
           sodipodi:rx="9.9550762"
           sodipodi:ry="9.9550762"
           d="m 2098.8618,-2173.0823 c 0,5.4981 -4.457,9.9551 -9.9551,9.9551 -5.498,0 -9.955,-4.457 -9.955,-9.9551 0,-5.498 4.457,-9.9551 9.955,-9.9551 5.4981,0 9.9551,4.4571 9.9551,9.9551 z"
           transform="matrix(0.26458334,0,0,0.26458334,-6.3049604e-6,56.315736)" />
        <path
           sodipodi:type="arc"
           style="color:#000000;fill:#cdbc75;fill-opacity:1;fill-rule:nonzero;stroke:none;stroke-width:37.38399887;marker:none;visibility:visible;display:inline;overflow:visible;enable-background:accumulate"
           id="path14142"
           sodipodi:cx="634.63611"
           sodipodi:cy="-2046.9847"
           sodipodi:rx="19.080563"
           sodipodi:ry="16.591793"
           d="m 653.71667,-2046.9847 c 0,9.1634 -8.54266,16.5918 -19.08056,16.5918 -10.53791,0 -19.08056,-7.4284 -19.08056,-16.5918 0,-9.1634 8.54265,-16.5918 19.08056,-16.5918 10.5379,0 19.08056,7.4284 19.08056,16.5918 z"
           transform="matrix(0.26458334,0,0,0.26458334,-6.3049604e-6,56.315736)" />
        <path
           sodipodi:type="arc"
           style="color:#000000;fill:#cdbc75;fill-opacity:1;fill-rule:nonzero;stroke:none;stroke-width:37.38399887;marker:none;visibility:visible;display:inline;overflow:visible;enable-background:accumulate"
           id="path14144"
           sodipodi:cx="676.94513"
           sodipodi:cy="-2085.1458"
           sodipodi:rx="11.614255"
           sodipodi:ry="11.614255"
           d="m 688.55938,-2085.1458 c 0,6.4144 -5.19987,11.6143 -11.61425,11.6143 -6.41438,0 -11.61426,-5.1999 -11.61426,-11.6143 0,-6.4143 5.19988,-11.6142 11.61426,-11.6142 6.41438,0 11.61425,5.1999 11.61425,11.6142 z"
           transform="matrix(0.26458334,0,0,0.26458334,-6.3049604e-6,56.315736)" />
        <path
           sodipodi:type="arc"
           style="color:#000000;fill:#cdbc75;fill-opacity:1;fill-rule:nonzero;stroke:none;stroke-width:37.38399887;marker:none;visibility:visible;display:inline;overflow:visible;enable-background:accumulate"
           id="path14146"
           sodipodi:cx="730.03888"
           sodipodi:cy="-2052.7917"
           sodipodi:rx="29.865227"
           sodipodi:ry="24.0581"
           d="m 759.90411,-2052.7917 c 0,13.2869 -13.37112,24.0581 -29.86523,24.0581 -16.49411,0 -29.86523,-10.7712 -29.86523,-24.0581 0,-13.287 13.37112,-24.0581 29.86523,-24.0581 16.49411,0 29.86523,10.7711 29.86523,24.0581 z"
           transform="matrix(0.26458334,0,0,0.26458334,-6.3049604e-6,56.315736)" />
        <path
           sodipodi:type="arc"
           style="color:#000000;fill:#cdbc75;fill-opacity:1;fill-rule:nonzero;stroke:none;stroke-width:37.38399887;marker:none;visibility:visible;display:inline;overflow:visible;enable-background:accumulate"
           id="path14148"
           sodipodi:cx="2112.9648"
           sodipodi:cy="-2064.406"
           sodipodi:rx="40.649891"
           sodipodi:ry="25.717279"
           d="m 2153.6147,-2064.406 c 0,14.2033 -18.1995,25.7173 -40.6499,25.7173 -22.4503,0 -40.6498,-11.514 -40.6498,-25.7173 0,-14.2033 18.1995,-25.7173 40.6498,-25.7173 22.4504,0 40.6499,11.514 40.6499,25.7173 z"
           transform="matrix(0.26458334,0,0,0.26458334,-6.3049604e-6,56.315736)" />
        <path
           sodipodi:type="arc"
           style="color:#000000;fill:#cdbc75;fill-opacity:1;fill-rule:nonzero;stroke:none;stroke-width:37.38399887;marker:none;visibility:visible;display:inline;overflow:visible;enable-background:accumulate"
           id="path14150"
           sodipodi:cx="2171.8657"
           sodipodi:cy="-2093.4417"
           sodipodi:rx="13.273435"
           sodipodi:ry="13.273435"
           d="m 2185.1392,-2093.4417 c 0,7.3308 -5.9428,13.2735 -13.2735,13.2735 -7.3307,0 -13.2734,-5.9427 -13.2734,-13.2735 0,-7.3307 5.9427,-13.2734 13.2734,-13.2734 7.3307,0 13.2735,5.9427 13.2735,13.2734 z"
           transform="matrix(0.26458334,0,0,0.26458334,-6.3049604e-6,56.315736)" />
        <path
           sodipodi:type="arc"
           style="color:#000000;fill:#cdbc75;fill-opacity:1;fill-rule:nonzero;stroke:none;stroke-width:37.38399887;marker:none;visibility:visible;display:inline;overflow:visible;enable-background:accumulate"
           id="path14152"
           sodipodi:cx="2181.8208"
           sodipodi:cy="-2056.9397"
           sodipodi:rx="9.9550762"
           sodipodi:ry="9.9550762"
           d="m 2191.7759,-2056.9397 c 0,5.498 -4.4571,9.9551 -9.9551,9.9551 -5.498,0 -9.9551,-4.4571 -9.9551,-9.9551 0,-5.498 4.4571,-9.9551 9.9551,-9.9551 5.498,0 9.9551,4.4571 9.9551,9.9551 z"
           transform="matrix(0.26458334,0,0,0.26458334,-6.3049604e-6,56.315736)" />
        <path
           sodipodi:type="arc"
           style="color:#000000;fill:#cdbc75;fill-opacity:1;fill-rule:nonzero;stroke:none;stroke-width:37.38399887;marker:none;visibility:visible;display:inline;overflow:visible;enable-background:accumulate"
           id="path14154"
           sodipodi:cx="1978.5713"
           sodipodi:cy="-2062.7468"
           sodipodi:rx="10.784665"
           sodipodi:ry="10.784665"
           d="m 1989.356,-2062.7468 c 0,5.9562 -4.8285,10.7846 -10.7847,10.7846 -5.9562,0 -10.7847,-4.8284 -10.7847,-10.7846 0,-5.9562 4.8285,-10.7847 10.7847,-10.7847 5.9562,0 10.7847,4.8285 10.7847,10.7847 z"
           transform="matrix(0.26458334,0,0,0.26458334,-6.3049604e-6,56.315736)" />
      </g>
      <g
         transform="matrix(-0.79732775,0,0,-0.79732775,1310.1822,1854.3263)"
         id="g5646">
        <g
           transform="matrix(3.5494208,1.29863,-1.29863,3.5494208,203.9308,4576.69)"
           clip-path="url(#clipPath5234)"
           id="g5634">
          <path
             style="color:#000000;fill:#cab4e8;fill-opacity:1;fill-rule:nonzero;stroke:#120f06;stroke-width:22;stroke-linejoin:round;stroke-miterlimit:4;stroke-opacity:1;stroke-dasharray:none;marker:none;visibility:visible;display:inline;overflow:visible;enable-background:accumulate"
             d="m 521.81189,1391.7898 61.83517,-54.7041 4.11722,4.9287 -28.62085,21.9841 z"
             id="path5636"
             inkscape:connector-curvature="0"
             transform="matrix(0.26458334,0,0,0.26458334,-371.47125,-1254.9848)"
             sodipodi:nodetypes="ccccc" />
        </g>
        <g
           id="g5638"
           clip-path="url(#clipPath5234)"
           transform="matrix(-3.5494208,1.29863,1.29863,3.5494208,1010.6937,4577.3981)">
          <path
             sodipodi:nodetypes="ccccc"
             transform="matrix(0.26458334,0,0,0.26458334,-371.47125,-1254.9848)"
             inkscape:connector-curvature="0"
             id="path5640"
             d="m 521.81189,1391.7898 61.83517,-54.7041 4.11722,4.9287 -28.62085,21.9841 z"
             style="color:#000000;fill:#cab4e8;fill-opacity:1;fill-rule:nonzero;stroke:#120f06;stroke-width:22;stroke-linejoin:round;stroke-miterlimit:4;stroke-opacity:1;stroke-dasharray:none;marker:none;visibility:visible;display:inline;overflow:visible;enable-background:accumulate" />
        </g>
        <g
           transform="matrix(-1.6818783,-0.73677172,-0.73677172,1.6818783,-424.61967,2451.5223)"
           clip-path="url(#clipPath5234)"
           id="g5642">
          <path
             style="color:#000000;fill:#cab4e8;fill-opacity:1;fill-rule:nonzero;stroke:#120f06;stroke-width:22;stroke-linejoin:round;stroke-miterlimit:4;stroke-opacity:1;stroke-dasharray:none;marker:none;visibility:visible;display:inline;overflow:visible;enable-background:accumulate"
             d="m 521.81189,1391.7898 61.83517,-54.7041 4.11722,4.9287 -28.62085,21.9841 z"
             id="path5644"
             inkscape:connector-curvature="0"
             transform="matrix(0.26458334,0,0,0.26458334,-371.47125,-1254.9848)"
             sodipodi:nodetypes="ccccc" />
        </g>
      </g>
    </g>
  </g>
</svg>
