<?xml version="1.0" encoding="UTF-8" standalone="no"?>
<!-- Created with Inkscape (http://www.inkscape.org/) -->

<svg
   xmlns:dc="http://purl.org/dc/elements/1.1/"
   xmlns:cc="http://creativecommons.org/ns#"
   xmlns:rdf="http://www.w3.org/1999/02/22-rdf-syntax-ns#"
   xmlns:svg="http://www.w3.org/2000/svg"
   xmlns="http://www.w3.org/2000/svg"
   xmlns:sodipodi="http://sodipodi.sourceforge.net/DTD/sodipodi-0.dtd"
   xmlns:inkscape="http://www.inkscape.org/namespaces/inkscape"
   width="1189.2559"
   height="300.28049"
   id="svg3762"
   version="1.1"
   inkscape:version="0.48.5 r10040"
   sodipodi:docname="scroll_top.svg">
  <defs
     id="defs3764">
    <filter
       inkscape:collect="always"
       id="filter13836"
       x="-0.3026087"
       width="1.6052175"
       y="-0.3026087"
       height="1.6052175"
       color-interpolation-filters="sRGB">
      <feGaussianBlur
         inkscape:collect="always"
         stdDeviation="83.431025"
         id="feGaussianBlur13838" />
    </filter>
    <clipPath
       clipPathUnits="userSpaceOnUse"
       id="clipPath4660">
      <path
         sodipodi:nodetypes="ccccc"
         inkscape:connector-curvature="0"
         id="path4662"
         d="m -140.96078,40.191783 c 5.3252,353.713047 0,650.728047 0,982.884617 l 1142.04878,0 c -24.2181,-310.22233 0,-598.42068 0,-982.884617 z"
         style="color:#000000;fill:#c83737;fill-opacity:1;fill-rule:nonzero;stroke:none;stroke-width:40;marker:none;visibility:visible;display:inline;overflow:visible;enable-background:accumulate" />
    </clipPath>
    <clipPath
       clipPathUnits="userSpaceOnUse"
       id="clipPath5234">
      <path
         style="opacity:0.60619465;color:#000000;fill:#f1e3a6;fill-opacity:1;fill-rule:nonzero;stroke:none;stroke-width:30;marker:none;visibility:visible;display:inline;overflow:visible;enable-background:accumulate"
         d="m -224.74325,-912.862 -26.90482,16.09822 9.42578,11.62516 3.80339,-2.33167 -0.0661,-0.0827 22.83685,-14.41979 -9.09505,-10.88927 z"
         id="path5236"
         inkscape:connector-curvature="0" />
    </clipPath>
    <clipPath
       clipPathUnits="userSpaceOnUse"
       id="clipPath5276">
      <path
         style="opacity:0.60619465;color:#000000;fill:#f1e3a6;fill-opacity:1;fill-rule:nonzero;stroke:none;stroke-width:30;marker:none;visibility:visible;display:inline;overflow:visible;enable-background:accumulate"
         d="m -224.74325,-912.862 -26.90482,16.09822 9.42578,11.62516 3.80339,-2.33167 -0.0661,-0.0827 22.83685,-14.41979 -9.09505,-10.88927 z"
         id="path5278"
         inkscape:connector-curvature="0" />
    </clipPath>
    <clipPath
       clipPathUnits="userSpaceOnUse"
       id="clipPath5280">
      <path
         style="opacity:0.60619465;color:#000000;fill:#f1e3a6;fill-opacity:1;fill-rule:nonzero;stroke:none;stroke-width:30;marker:none;visibility:visible;display:inline;overflow:visible;enable-background:accumulate"
         d="m -224.74325,-912.862 -26.90482,16.09822 9.42578,11.62516 3.80339,-2.33167 -0.0661,-0.0827 22.83685,-14.41979 -9.09505,-10.88927 z"
         id="path5282"
         inkscape:connector-curvature="0" />
    </clipPath>
    <clipPath
       clipPathUnits="userSpaceOnUse"
       id="clipPath5234-2">
      <path
         style="opacity:0.60619465;color:#000000;fill:#f1e3a6;fill-opacity:1;fill-rule:nonzero;stroke:none;stroke-width:30;marker:none;visibility:visible;display:inline;overflow:visible;enable-background:accumulate"
         d="m -224.74325,-912.862 -26.90482,16.09822 9.42578,11.62516 3.80339,-2.33167 -0.0661,-0.0827 22.83685,-14.41979 -9.09505,-10.88927 z"
         id="path5236-2"
         inkscape:connector-curvature="0" />
    </clipPath>
  </defs>
  <sodipodi:namedview
     id="base"
     pagecolor="#ffffff"
     bordercolor="#666666"
     borderopacity="1.0"
     inkscape:pageopacity="0.0"
     inkscape:pageshadow="2"
     inkscape:zoom="0.7"
     inkscape:cx="570.96148"
     inkscape:cy="149.11103"
     inkscape:document-units="px"
     inkscape:current-layer="layer1"
     showgrid="false"
     fit-margin-top="15"
     fit-margin-left="15"
     fit-margin-right="15"
     fit-margin-bottom="15"
     inkscape:window-width="1920"
     inkscape:window-height="1017"
     inkscape:window-x="-8"
     inkscape:window-y="-8"
     inkscape:window-maximized="1" />
  <metadata
     id="metadata3767">
    <rdf:RDF>
      <cc:Work
         rdf:about="">
        <dc:format>image/svg+xml</dc:format>
        <dc:type
           rdf:resource="http://purl.org/dc/dcmitype/StillImage" />
        <dc:title></dc:title>
      </cc:Work>
    </rdf:RDF>
  </metadata>
  <g
     inkscape:label="Layer 1"
     inkscape:groupmode="layer"
     id="layer1"
     transform="translate(-8.9188282,-416.78384)">
    <g
       transform="matrix(2.2593034,0,0,2.2593034,261.12453,1053.1022)"
       id="g13855"
       inkscape:export-filename="C:\Users\rober\Desktop\assets\FREE_FRIDAY\January_2023\scroll\scroll_kit\parts\upper.png"
       inkscape:export-xdpi="90"
       inkscape:export-ydpi="90">
      <g
         id="g13857"
         transform="matrix(1,0,0,0.87345543,-378.70466,-84.734022)">
        <g
           transform="matrix(0.99628021,-0.08617281,0.08617281,0.99628021,-71.689979,70.38966)"
           id="g13859">
          <g
             transform="matrix(-1,0,0,1,1147.4291,3.0729384)"
             id="g13861">
            <path
               transform="matrix(0.26458334,0,0,0.26458334,-6.3049604e-6,18.562493)"
               inkscape:connector-curvature="0"
               id="path13863"
               d="m 1111.6501,-630.04562 c -9.955,-127.75681 34.8428,-147.66696 34.8428,-147.66696 l 99.5507,23.22851 c 0,0 21.5694,24.88769 11.6143,48.1162 -9.9551,23.22851 -48.1162,101.20994 -71.3447,101.20994 -23.2285,0 -74.6631,-24.88769 -74.6631,-24.88769 z"
               style="color:#000000;fill:#e6d693;fill-opacity:1;fill-rule:nonzero;stroke:#120f06;stroke-width:40;stroke-linejoin:round;stroke-opacity:1;marker:none;visibility:visible;display:inline;overflow:visible;enable-background:accumulate" />
            <path
               style="color:#000000;fill:#c3ac52;fill-opacity:1;fill-rule:nonzero;stroke:none;stroke-width:40;marker:none;visibility:visible;display:inline;overflow:visible;enable-background:accumulate"
               d="m 1111.6501,-630.04562 c -9.955,-127.75681 34.8428,-147.66696 34.8428,-147.66696 l 99.5507,23.22851 c 0,0 21.5694,24.88769 11.6143,48.1162 -9.9551,23.22851 -48.1162,101.20994 -71.3447,101.20994 -23.2285,0 -74.6631,-24.88769 -74.6631,-24.88769 z"
               id="path13865"
               inkscape:connector-curvature="0"
               transform="matrix(0.26458334,0,0,0.26458334,-6.3049604e-6,18.562493)" />
          </g>
          <g
             transform="matrix(-1,0,0,1,1149.1851,-6.584868)"
             id="g13867">
            <path
               sodipodi:nodetypes="cccscccccc"
               inkscape:connector-curvature="0"
               id="path13869"
               transform="matrix(-0.26359914,0.02279989,0.02279989,0.26359914,1070.0155,-38.588068)"
               d="m 2905.625,-706.875 c -4.0478,3.04456 -3.2624,2.9295 -14.6562,11.28125 -31.9839,18.62414 -65.2188,47.25 -65.2188,47.25 0,0 -123.5554,15.69044 -121.1875,23.8125 2.3679,8.12206 -3.7187,130.21875 -3.7187,130.21875 l 225.1874,-34.46875 c 5.3666,-4.10521 10.3379,-18.4207 13.0938,-37.59375 -21.2133,-9.98273 -33.0625,-14.375 -33.0625,-14.375 0,0 17.2311,-8.2057 35.2813,-16.3125 0.3082,-38.87287 -8.5188,-84.47705 -35.7188,-109.8125 z"
               style="color:#000000;fill:#e6d693;fill-opacity:1;fill-rule:nonzero;stroke:#120f06;stroke-width:40;stroke-linecap:round;stroke-linejoin:round;stroke-miterlimit:4;stroke-opacity:1;stroke-dasharray:none;stroke-dashoffset:0;marker:none;visibility:visible;display:inline;overflow:visible;enable-background:accumulate" />
            <path
               inkscape:connector-curvature="0"
               id="path13871"
               transform="matrix(-0.26359914,0.02279989,0.02279989,0.26359914,1070.0155,-38.588068)"
               d="m 2905.625,-706.875 c -4.0478,3.04456 -3.2624,2.9295 -14.6562,11.28125 l -21.5,15.75 c -16.7983,12.27932 -43.7188,31.5 -43.7188,31.5 0,0 -123.5554,15.69044 -121.1875,23.8125 2.3679,8.12206 -3.7187,130.21875 -3.7187,130.21875 l 225.1874,-34.46875 c 5.3666,-4.10521 10.3379,-18.4207 13.0938,-37.59375 -21.2133,-9.98273 -33.0625,-14.375 -33.0625,-14.375 0,0 17.2311,-8.2057 35.2813,-16.3125 0.3082,-38.87287 -8.5188,-84.47705 -35.7188,-109.8125 z"
               style="color:#000000;fill:#c3ac52;fill-opacity:1;fill-rule:nonzero;stroke:none;stroke-width:40;marker:none;visibility:visible;display:inline;overflow:visible;enable-background:accumulate" />
            <path
               inkscape:connector-curvature="0"
               id="path13873"
               transform="matrix(-0.26359914,0.02279989,0.02279989,0.26359914,1070.0155,-38.588068)"
               d="m 2905.625,-706.875 c -4.0479,3.04456 -3.2624,2.96075 -14.6562,11.3125 l -21.5,15.71875 c -16.7984,12.27933 -43.7188,31.5 -43.7188,31.5 0,0 -1.6509,0.21042 -4.5625,0.59375 -0.4152,0.0545 -0.2453,0.0315 -0.7187,0.0937 -2.8773,0.37969 -6.6612,0.91023 -11.4063,1.5625 -4.7698,0.65363 -9.9361,1.37418 -16,2.25 -0.7952,0.11495 -1.4703,0.19428 -2.2813,0.3125 -2.9539,0.43058 -6.0082,0.90601 -9.125,1.375 -3.2613,0.49074 -6.5799,0.97489 -9.9374,1.5 -0.4744,0.0742 -0.9309,0.144 -1.4063,0.21875 -2.8429,0.44665 -5.6829,0.90971 -8.5313,1.375 -0.9552,0.1562 -1.8916,0.34202 -2.8437,0.5 -2.9439,0.48843 -5.8739,0.96715 -8.75,1.46875 -3.4355,0.59916 -6.8118,1.2028 -10.0625,1.8125 -6.5011,1.21938 -12.5338,2.44858 -17.7188,3.65625 -1.2962,0.30192 -2.5347,0.60786 -3.7187,0.90625 -0.069,0.0173 -0.1508,0.0141 -0.2187,0.0312 -1.102,0.27925 -2.1638,0.56863 -3.1563,0.84375 -1.0596,0.29372 -2.0454,0.58706 -2.9687,0.875 -0.7911,0.2467 -1.5047,0.47706 -2.1876,0.71875 -0.1495,0.053 -0.3246,0.13479 -0.4687,0.1875 -1.1181,0.40859 -2.0723,0.79657 -2.8437,1.1875 -0.265,0.13428 -0.4975,0.27431 -0.7188,0.40625 7.1533,11.83493 16.942,19.30228 18.5,21.84375 3.8779,6.32609 143,-60.65625 143,-60.65625 14.106,-7.55 25.8901,-17.04531 37.6562,-26.5625 0,0 27.3956,34.33256 34.7188,95.375 0.4446,-0.20026 0.8666,-0.39347 1.3125,-0.59375 0.01,-0.5487 0.03,-1.10291 0.031,-1.65625 0,-0.39394 0,-0.79223 0,-1.1875 -0.01,-1.43885 -5e-4,-2.8586 -0.031,-4.3125 -0.01,-0.27156 0.01,-0.54048 0,-0.8125 -0.014,-0.57252 -0.045,-1.14419 -0.062,-1.71875 -0.018,-0.58302 -0.04,-1.16512 -0.062,-1.75 -0.029,-0.76867 -0.057,-1.54095 -0.094,-2.3125 -0.019,-0.39513 -0.073,-0.7917 -0.094,-1.1875 -0.062,-1.16949 -0.108,-2.35676 -0.1875,-3.53125 -0.081,-1.1744 -0.1824,-2.35321 -0.2813,-3.53125 -0.1026,-1.18692 -0.1945,-2.34167 -0.3124,-3.53125 l -0.063,-0.5625 c -0.022,-0.25938 -0.066,-0.52216 -0.094,-0.78125 -0.1179,-1.11891 -0.24,-2.22438 -0.375,-3.34375 -0.072,-0.59665 -0.1421,-1.21596 -0.2187,-1.8125 -0.027,-0.19679 -0.068,-0.39684 -0.094,-0.59375 -0.1554,-1.18105 -0.2932,-2.35191 -0.4688,-3.53125 -0.1155,-0.77922 -0.2502,-1.56577 -0.375,-2.34375 -0.065,-0.40268 -0.1205,-0.81644 -0.1874,-1.21875 -0.1612,-0.96976 -0.3243,-1.93942 -0.5,-2.90625 -0.037,-0.20573 -0.087,-0.41946 -0.125,-0.625 -0.2169,-1.17195 -0.4493,-2.30251 -0.6876,-3.46875 -0.2778,-1.36092 -0.5673,-2.71131 -0.875,-4.0625 -0.2815,-1.23715 -0.5365,-2.46021 -0.8437,-3.6875 -0.029,-0.113 -0.066,-0.23074 -0.094,-0.34375 -0.1935,-0.76652 -0.4213,-1.55041 -0.625,-2.3125 -0.1523,-0.56966 -0.2795,-1.15177 -0.4376,-1.71875 -0.1602,-0.57479 -0.3339,-1.11562 -0.5,-1.6875 -0.2176,-0.74944 -0.428,-1.50591 -0.6562,-2.25 -0.116,-0.37761 -0.2565,-0.74882 -0.375,-1.125 -0.1037,-0.32897 -0.2068,-0.64091 -0.3125,-0.96875 -0.2533,-0.786 -0.5159,-1.56468 -0.7813,-2.34375 -0.3761,-1.10401 -0.7556,-2.22352 -1.1562,-3.3125 -0.4674,-1.27079 -0.9673,-2.50165 -1.4688,-3.75 -0.3012,-0.74968 -0.5925,-1.50903 -0.9062,-2.25 -0.061,-0.14234 -0.1268,-0.26422 -0.1875,-0.40625 -0.3081,-0.72048 -0.6174,-1.44455 -0.9375,-2.15625 -0.2878,-0.63976 -0.6087,-1.2739 -0.9062,-1.90625 -0.098,-0.20856 -0.1508,-0.41725 -0.25,-0.625 -0.2467,-0.5163 -0.5278,-1.02021 -0.7813,-1.53125 -0.3336,-0.67291 -0.6546,-1.36777 -1,-2.03125 -0.1771,-0.34003 -0.3511,-0.66253 -0.5313,-1 -0.1989,-0.37286 -0.3909,-0.75533 -0.5937,-1.125 -0.3377,-0.61555 -0.6829,-1.20604 -1.0313,-1.8125 -0.5576,-0.97066 -1.1334,-1.95998 -1.7187,-2.90625 -0.5891,-0.95226 -1.1949,-1.85503 -1.8125,-2.78125 -0.098,-0.14733 -0.1823,-0.29087 -0.2812,-0.4375 -0.5184,-0.76791 -1.0554,-1.53241 -1.5938,-2.28125 -0.2148,-0.29874 -0.4383,-0.61062 -0.6562,-0.90625 -0.4331,-0.5874 -0.8666,-1.14397 -1.3126,-1.71875 -0.3365,-0.43363 -0.656,-0.855 -1,-1.28125 -0.344,-0.42628 -0.711,-0.86252 -1.0624,-1.28125 -0.048,-0.0576 -0.1082,-0.0988 -0.1563,-0.15625 -0.539,-0.63882 -1.0684,-1.28565 -1.625,-1.90625 -0.1195,-0.1333 -0.2234,-0.27382 -0.3437,-0.40625 -0.6113,-0.67243 -1.2426,-1.31888 -1.875,-1.96875 -0.124,-0.12741 -0.2503,-0.24847 -0.375,-0.375 -0.7616,-0.77186 -1.5202,-1.54311 -2.3126,-2.28125 l -0.031,0 z"
               style="color:#000000;fill:#f1e3a6;fill-opacity:1;fill-rule:nonzero;stroke:none;stroke-width:40;marker:none;visibility:visible;display:inline;overflow:visible;enable-background:accumulate" />
            <path
               inkscape:connector-curvature="0"
               id="path13875"
               transform="matrix(-0.26359914,0.02279989,0.02279989,0.26359914,1070.0155,-38.588068)"
               d="m 2798.0625,-592.96875 c -2.7412,-0.31794 -40.4197,28.65175 -49.2187,46.25 -5.8312,11.66227 -16.6483,28.75183 -18.6563,47.90625 l 195.8437,-29.96875 c 5.3666,-4.10521 10.3379,-18.4207 13.0938,-37.59375 -21.2133,-9.98273 -33.0625,-14.375 -33.0625,-14.375 0,0 4.3148,-2.04924 10.1563,-4.78125 -35.7994,7.28817 -85.2755,13.71532 -121.625,-1.09375 0,0 1.1847,-1.18213 3.5312,-5.875 0.1467,-0.2933 0.1202,-0.44755 -0.062,-0.46875 z"
               style="color:#000000;fill:#968130;fill-opacity:1;fill-rule:nonzero;stroke:none;stroke-width:40;marker:none;visibility:visible;display:inline;overflow:visible;enable-background:accumulate" />
          </g>
        </g>
        <g
           transform="matrix(0.95785761,0,0.09032016,0.99248513,-69.478334,-0.68034022)"
           id="g13877">
          <g
             transform="matrix(-1,0,0,0.96941321,1164.9063,-3.2043254)"
             id="g13879">
            <path
               sodipodi:nodetypes="ccssscc"
               inkscape:connector-curvature="0"
               id="path13881"
               d="m 344.16908,-199.06006 c -6.14587,-0.43899 -35.55828,-6.14588 -35.55828,-6.14588 -20.29696,-1.15982 -22.86521,43.28539 -17.88884,74.49096 0.76216,4.7793 -3.67622,9.33408 -2.29601,13.37381 3.25177,9.51756 8.22089,16.17615 14.91697,16.17615 1.75596,0 74.18952,5.706883 74.18952,5.706883 0,0 -34.24132,-104.918893 -33.36336,-103.601923 z"
               style="color:#000000;fill:#e6d693;fill-opacity:1;fill-rule:nonzero;stroke:#120f06;stroke-width:10.58333397;stroke-linejoin:round;stroke-miterlimit:4;stroke-opacity:1;stroke-dasharray:none;marker:none;visibility:visible;display:inline;overflow:visible;enable-background:accumulate" />
            <path
               style="color:#000000;fill:#e6d693;fill-opacity:1;fill-rule:nonzero;stroke:none;stroke-width:40;marker:none;visibility:visible;display:inline;overflow:visible;enable-background:accumulate"
               d="m 344.16908,-199.06006 c -6.14587,-0.43899 -35.55828,-6.14588 -35.55828,-6.14588 -30.72937,-1.75596 -33.36335,104.04092 -5.26788,104.04092 1.75596,0 74.18952,5.706883 74.18952,5.706883 0,0 -34.24132,-104.918893 -33.36336,-103.601923 z"
               id="path13883"
               inkscape:connector-curvature="0"
               sodipodi:nodetypes="ccscc" />
            <path
               inkscape:connector-curvature="0"
               style="color:#000000;fill:#c3ac52;fill-opacity:1;fill-rule:nonzero;stroke:none;stroke-width:40;marker:none;visibility:visible;display:inline;overflow:visible;enable-background:accumulate"
               d="m 3224.7188,-831.9375 c -26.0295,4.83365 -103.1816,18.97558 -122.6876,20.34375 C 3101.9386,-806.48118 2975.875,-432 2975.875,-432 c 0,0 60.5738,-4.60534 119.4062,-9.0625 27.1988,-2.05829 51.8504,-3.91056 76.375,-5.75 13.1519,-0.98644 27.2155,-2.04346 38.0313,-2.84375 13.2996,-0.98125 24.5352,-1.80261 32.6563,-2.375 1.2016,-0.0847 1.8132,-0.14506 2.875,-0.21875 5.9789,-0.41501 10.3284,-0.6875 11.0624,-0.6875 1.3123,0 2.6295,-0.0706 3.9063,-0.1875 0.3625,-0.0334 0.7341,-0.0824 1.0937,-0.125 0.2815,-0.0333 0.5641,-0.0548 0.8438,-0.0937 0.1591,-0.0221 0.3102,-0.0698 0.4688,-0.0937 0.4728,-0.0715 0.9384,-0.13123 1.4062,-0.21875 0.1561,-0.0292 0.3132,-0.0628 0.4688,-0.0937 0.2938,-0.0586 0.5831,-0.12263 0.875,-0.1875 0.4084,-0.0906 0.8141,-0.17842 1.2187,-0.28125 0.3767,-0.0959 0.7517,-0.20607 1.125,-0.3125 0.3749,-0.10682 0.7535,-0.19515 1.125,-0.3125 0.094,-0.0297 0.1874,-0.0634 0.2813,-0.0937 0.4722,-0.15291 0.9395,-0.33019 1.4062,-0.5 0.2625,-0.0956 0.5205,-0.18037 0.7812,-0.28125 0.2925,-0.11299 0.5848,-0.22413 0.875,-0.34375 0.291,-0.12012 0.5863,-0.24826 0.875,-0.375 0.043,-0.0187 0.082,-0.0437 0.125,-0.0625 0.5319,-0.23551 1.0695,-0.49223 1.5938,-0.75 0.2275,-0.1118 0.4615,-0.22781 0.6875,-0.34375 0.3447,-0.17687 0.6899,-0.3448 1.0313,-0.53125 0.1883,-0.10277 0.3751,-0.20684 0.5624,-0.3125 0.3696,-0.20864 0.7282,-0.43642 1.0938,-0.65625 0.1549,-0.093 0.3146,-0.18621 0.4688,-0.28125 0.3936,-0.24291 0.7984,-0.49419 1.1874,-0.75 0.1252,-0.0822 0.2504,-0.16645 0.375,-0.25 0.024,-0.0163 0.038,-0.0462 0.063,-0.0625 0.9342,-0.62854 1.8424,-1.26687 2.75,-1.96875 0.064,-0.0496 0.1234,-0.10629 0.1874,-0.15625 0.2481,-0.19364 0.504,-0.39471 0.75,-0.59375 0.2083,-0.1685 0.4183,-0.32766 0.625,-0.5 23.0137,-19.16481 37.2045,-62.02156 42.8126,-112.0625 -15.614,4.24791 -35.789,2.76423 -55.25,-0.625 -4.7483,-57.76586 -28.5007,-152.19076 -103.7188,-229.8125 0,0 58.5811,-22.05745 56.3438,-25.78125 z m -122.6876,20.34375 c 0,-0.0675 -0.019,-0.0628 -0.062,0 0.018,-9.7e-4 0.044,9.7e-4 0.062,0 z"
               transform="matrix(-0.26458334,0,0,0.27293144,1164.9063,22.453602)"
               id="path13885" />
            <path
               id="path13887"
               transform="matrix(0.26458334,0,0,0.26458334,-18.876627,14.611572)"
               d="m 1235.0312,-830.875 c -54.3834,-0.15884 -84.7681,89.98038 -90.125,184 10.1085,-67.38578 39.9614,-114.77881 54.6876,-130.84375 18.251,-19.91015 164.25,0 164.25,0 0,0 7.268,-4.92768 13.4062,-12.375 -3.227,-10.35274 -5.1451,-16.83342 -5.1562,-17.46875 -23.3496,-1.68946 -134.3438,-23.25 -134.3438,-23.25 -0.9074,-0.0518 -1.8244,-0.0599 -2.7188,-0.0625 z m 137.0626,23.3125 c 0.018,10e-4 0.044,-10e-4 0.062,0 -0.043,-0.0648 -0.064,-0.0696 -0.062,0 z"
               style="color:#000000;fill:#fcf1c6;fill-opacity:1;fill-rule:nonzero;stroke:none;stroke-width:40;marker:none;visibility:visible;display:inline;overflow:visible;enable-background:accumulate"
               inkscape:connector-curvature="0" />
          </g>
          <path
             transform="matrix(-0.26458334,0,0,0.25649058,1183.7829,10.960324)"
             d="m 1360.527,-511.41431 c 0,21.53398 -17.4568,38.99072 -38.9907,38.99072 -21.534,0 -38.9908,-17.45674 -38.9908,-38.99072 0,-21.53397 17.4568,-38.99071 38.9908,-38.99071 21.5339,0 38.9907,17.45674 38.9907,38.99071 z"
             sodipodi:ry="38.990715"
             sodipodi:rx="38.990715"
             sodipodi:cy="-511.41431"
             sodipodi:cx="1321.5363"
             id="path13889"
             style="color:#000000;fill:#d3c179;fill-opacity:1;fill-rule:nonzero;stroke:none;stroke-width:40;marker:none;visibility:visible;display:inline;overflow:visible;enable-background:accumulate"
             sodipodi:type="arc" />
          <path
             transform="matrix(-0.26458334,0,0,0.25649058,1183.7829,10.960324)"
             d="m 1395.3697,-523.85815 c 0,4.58169 -3.7142,8.29589 -8.2958,8.29589 -4.5817,0 -8.2959,-3.7142 -8.2959,-8.29589 0,-4.5817 3.7142,-8.2959 8.2959,-8.2959 4.5816,0 8.2958,3.7142 8.2958,8.2959 z"
             sodipodi:ry="8.2958965"
             sodipodi:rx="8.2958965"
             sodipodi:cy="-523.85815"
             sodipodi:cx="1387.0739"
             id="path13891"
             style="color:#000000;fill:#d3c179;fill-opacity:1;fill-rule:nonzero;stroke:none;stroke-width:40;marker:none;visibility:visible;display:inline;overflow:visible;enable-background:accumulate"
             sodipodi:type="arc" />
          <path
             transform="matrix(-0.26458334,0,0,0.25649058,1183.7829,10.960324)"
             d="m 1375.4596,-557.04175 c 0,6.41438 -5.1999,11.61426 -11.6143,11.61426 -6.4143,0 -11.6142,-5.19988 -11.6142,-11.61426 0,-6.41437 5.1999,-11.61425 11.6142,-11.61425 6.4144,0 11.6143,5.19988 11.6143,11.61425 z"
             sodipodi:ry="11.614255"
             sodipodi:rx="11.614255"
             sodipodi:cy="-557.04175"
             sodipodi:cx="1363.8453"
             id="path13893"
             style="color:#000000;fill:#d3c179;fill-opacity:1;fill-rule:nonzero;stroke:none;stroke-width:40;marker:none;visibility:visible;display:inline;overflow:visible;enable-background:accumulate"
             sodipodi:type="arc" />
          <path
             transform="matrix(-0.26458334,0,0,0.25649058,1183.7829,10.960324)"
             d="m 1262.6355,-562.01929 c 0,10.07974 -8.1712,18.25098 -18.251,18.25098 -10.0797,0 -18.251,-8.17124 -18.251,-18.25098 0,-10.07973 8.1713,-18.25097 18.251,-18.25097 10.0798,0 18.251,8.17124 18.251,18.25097 z"
             sodipodi:ry="18.250973"
             sodipodi:rx="18.250973"
             sodipodi:cy="-562.01929"
             sodipodi:cx="1244.3845"
             id="path13895"
             style="color:#000000;fill:#d3c179;fill-opacity:1;fill-rule:nonzero;stroke:none;stroke-width:40;marker:none;visibility:visible;display:inline;overflow:visible;enable-background:accumulate"
             sodipodi:type="arc" />
        </g>
        <g
           transform="translate(0,3.0729384)"
           id="g13897">
          <path
             transform="matrix(0.26458334,0,0,0.26458334,-6.3049604e-6,18.562493)"
             inkscape:connector-curvature="0"
             id="path13899"
             d="m 1111.6501,-630.04562 c -9.955,-127.75681 34.8428,-147.66696 34.8428,-147.66696 l 99.5507,23.22851 c 0,0 21.5694,24.88769 11.6143,48.1162 -9.9551,23.22851 -48.1162,101.20994 -71.3447,101.20994 -23.2285,0 -74.6631,-24.88769 -74.6631,-24.88769 z"
             style="color:#000000;fill:#0f0e09;fill-opacity:1;fill-rule:nonzero;stroke:#120f06;stroke-width:40;stroke-linejoin:round;stroke-opacity:1;marker:none;visibility:visible;display:inline;overflow:visible;enable-background:accumulate" />
          <path
             style="color:#000000;fill:#c3ac52;fill-opacity:1;fill-rule:nonzero;stroke:none;stroke-width:40;marker:none;visibility:visible;display:inline;overflow:visible;enable-background:accumulate"
             d="m 1111.6501,-630.04562 c -9.955,-127.75681 34.8428,-147.66696 34.8428,-147.66696 l 99.5507,23.22851 c 0,0 21.5694,24.88769 11.6143,48.1162 -9.9551,23.22851 -48.1162,101.20994 -71.3447,101.20994 -23.2285,0 -74.6631,-24.88769 -74.6631,-24.88769 z"
             id="path13901"
             inkscape:connector-curvature="0"
             transform="matrix(0.26458334,0,0,0.26458334,-6.3049604e-6,18.562493)" />
        </g>
        <g
           transform="translate(-1.7559648,-6.584868)"
           id="g13903">
          <path
             sodipodi:nodetypes="cccsccccc"
             inkscape:connector-curvature="0"
             id="path13905"
             transform="matrix(0.26458334,0,0,0.26458334,1.7559585,25.147361)"
             d="m 1081.7812,-694.75 c -46.457,51.43456 -23.2197,167.57325 -4.9687,179.1875 l 227.3125,14.9375 c 0,0 -16.5967,-121.11035 -14.9375,-129.40625 1.6592,-8.2959 -122.7813,-13.28125 -122.7813,-13.28125 0,0 -28.4766,-16.85063 -46.2705,-27.63672 -9.649,10.42372 -25.0625,22.65625 -25.0625,22.65625 0,0 0,-18.75535 2.2813,-36.46875 -12.0712,-7.33884 -11.2782,-7.30386 -15.5733,-9.98828 z"
             style="color:#000000;fill:#0f0e09;fill-opacity:1;fill-rule:nonzero;stroke:#120f06;stroke-width:40;stroke-linecap:round;stroke-linejoin:round;stroke-miterlimit:4;stroke-opacity:1;stroke-dasharray:none;stroke-dashoffset:0;marker:none;visibility:visible;display:inline;overflow:visible;enable-background:accumulate" />
          <path
             sodipodi:nodetypes="cccsccccc"
             inkscape:connector-curvature="0"
             id="path13907"
             transform="matrix(0.26458334,0,0,0.26458334,1.7559585,25.147361)"
             d="m 1081.7812,-694.75 c -46.457,51.43456 -23.2197,167.57325 -4.9687,179.1875 l 227.3125,14.9375 c 0,0 -16.5967,-121.11035 -14.9375,-129.40625 1.6592,-8.2959 -122.7813,-13.28125 -122.7813,-13.28125 0,0 -28.4766,-16.85063 -46.2705,-27.63672 -9.649,10.42372 -25.0625,22.65625 -25.0625,22.65625 0,0 0,-18.75535 2.2813,-36.46875 -12.0712,-7.33884 -11.2782,-7.30386 -15.5733,-9.98828 z"
             style="color:#000000;fill:#c3ac52;fill-opacity:1;fill-rule:nonzero;stroke:none;stroke-width:40;marker:none;visibility:visible;display:inline;overflow:visible;enable-background:accumulate" />
          <path
             sodipodi:nodetypes="cccccscccccccc"
             inkscape:connector-curvature="0"
             id="path13909"
             transform="matrix(0.26458334,0,0,0.26458334,1.7559585,25.147361)"
             d="m 1081.7812,-694.75 c -27.1113,30.0161 -30.4857,82.04558 -24.9687,122.5 0.026,-0.46729 0.073,-0.8771 0.094,-1.375 10e-5,-66.36718 26.5313,-106.1875 26.5313,-106.1875 l 6.6563,13.25 c 0,0 3.3066,38.16797 6.625,31.53125 3.3184,-6.63671 26.5312,-21.5625 26.5312,-21.5625 0,0 144.3692,54.76172 147.6875,48.125 1.3332,-2.66627 10.4246,-10.96768 16.5313,-23.375 -14.8289,-7.1924 -121.0626,-11.46875 -121.0626,-11.46875 0,0 -28.4873,-16.83891 -46.2812,-27.625 -9.649,10.42372 -25.0625,22.65625 -25.0625,22.65625 0,0 -10e-5,-18.75535 2.2813,-36.46875 -12.0713,-7.33884 -11.2674,-7.31558 -15.5626,-10 z"
             style="color:#000000;fill:#f1e3a6;fill-opacity:1;fill-rule:nonzero;stroke:none;stroke-width:40;marker:none;visibility:visible;display:inline;overflow:visible;enable-background:accumulate" />
        </g>
        <g
           transform="translate(18.876621,3.9509208)"
           id="g13911">
          <path
             sodipodi:nodetypes="ccssscc"
             inkscape:connector-curvature="0"
             id="path13913"
             d="m 344.16908,-199.06006 c -6.14587,-0.43899 -35.55828,-6.14588 -35.55828,-6.14588 -20.29696,-1.15982 -28.37441,43.28539 -23.39804,74.49096 0.76216,4.7793 1.83298,9.33408 3.21319,13.37381 3.25177,9.51756 8.22089,16.17615 14.91697,16.17615 1.75596,0 74.18952,5.706883 74.18952,5.706883 0,0 -34.24132,-104.918893 -33.36336,-103.601923 z"
             style="color:#000000;fill:#0f0e09;fill-opacity:1;fill-rule:nonzero;stroke:#120f06;stroke-width:10.58333397;stroke-linejoin:round;stroke-miterlimit:4;stroke-opacity:1;stroke-dasharray:none;marker:none;visibility:visible;display:inline;overflow:visible;enable-background:accumulate" />
          <path
             style="color:#000000;fill:#e6d693;fill-opacity:1;fill-rule:nonzero;stroke:none;stroke-width:40;marker:none;visibility:visible;display:inline;overflow:visible;enable-background:accumulate"
             d="m 344.16908,-199.06006 c -6.14587,-0.43899 -35.55828,-6.14588 -35.55828,-6.14588 -30.72937,-1.75596 -33.36335,104.04092 -5.26788,104.04092 1.75596,0 74.18952,5.706883 74.18952,5.706883 0,0 -34.24132,-104.918893 -33.36336,-103.601923 z"
             id="path13915"
             inkscape:connector-curvature="0"
             sodipodi:nodetypes="ccscc" />
          <path
             id="path13917"
             transform="matrix(0.26458334,0,0,0.26458334,-18.876627,14.611572)"
             d="m 1267.9062,-580.84375 c -10.6474,0.14969 -80.9834,27.85918 -121.125,16.59375 7.6233,70.16894 31.1478,126.65625 71.0626,126.65625 3.7595,0 84.1225,6.24866 161,12.25 -17.8354,-38.63353 -56.4807,-74.29009 -66.4376,-105.15625 -16.5918,-51.43456 -43.125,-43.14453 -43.125,-49.78125 0,-0.4148 -0.4818,-0.57506 -1.375,-0.5625 z"
             style="color:#000000;fill:#c3ac52;fill-opacity:1;fill-rule:nonzero;stroke:none;stroke-width:40;marker:none;visibility:visible;display:inline;overflow:visible;enable-background:accumulate"
             inkscape:connector-curvature="0" />
          <path
             id="path13919"
             transform="matrix(0.26458334,0,0,0.26458334,-18.876627,14.611572)"
             d="m 1235.0312,-830.875 c -54.3834,-0.15884 -84.7681,89.98038 -90.125,184 10.1085,-67.38578 39.9614,-114.77881 54.6876,-130.84375 18.251,-19.91015 164.25,0 164.25,0 0,0 7.268,-4.92768 13.4062,-12.375 -3.227,-10.35274 -5.1451,-16.83342 -5.1562,-17.46875 -23.3496,-1.68946 -134.3438,-23.25 -134.3438,-23.25 -0.9074,-0.0518 -1.8244,-0.0599 -2.7188,-0.0625 z m 137.0626,23.3125 c 0.018,10e-4 0.044,-10e-4 0.062,0 -0.043,-0.0648 -0.064,-0.0696 -0.062,0 z"
             style="color:#000000;fill:#fcf1c6;fill-opacity:1;fill-rule:nonzero;stroke:none;stroke-width:40;marker:none;visibility:visible;display:inline;overflow:visible;enable-background:accumulate"
             inkscape:connector-curvature="0" />
          <path
             id="path13921"
             transform="matrix(0.26458334,0,0,0.26458334,-18.876627,14.611572)"
             d="m 1249.4062,-828.5625 c -2.2373,3.84129 -3.375,6.0625 -3.375,6.0625 -102.8691,109.50584 -76.3242,272.09767 -69.6874,305.28125 2.0462,10.23108 6.4721,36.56277 13.25,68.5625 8.2704,7.11121 17.6937,11.0625 28.25,11.0625 6.6366,0 280.4062,21.59375 280.4062,21.59375 0,0 -126.0636,-386.28862 -126.1562,-391.5625 -19.5059,-1.41134 -96.6582,-16.01384 -122.6876,-21 z m 122.6876,21 c 0.018,10e-4 0.044,-10e-4 0.062,0 -0.043,-0.0648 -0.064,-0.0696 -0.062,0 z"
             style="color:#000000;fill:#c3ac52;fill-opacity:1;fill-rule:nonzero;stroke:none;stroke-width:40;marker:none;visibility:visible;display:inline;overflow:visible;enable-background:accumulate"
             inkscape:connector-curvature="0" />
        </g>
        <g
           transform="translate(-781.40433,-8.7798239)"
           id="g13923">
          <path
             sodipodi:nodetypes="scsccccsssccccccss"
             inkscape:connector-curvature="0"
             style="color:#000000;fill:#0f0e09;fill-opacity:1;fill-rule:nonzero;stroke:#120f06;stroke-width:40.00049591;stroke-linecap:round;stroke-linejoin:round;stroke-miterlimit:4;stroke-opacity:1;stroke-dasharray:none;stroke-dashoffset:0;marker:none;visibility:visible;display:inline;overflow:visible;enable-background:accumulate"
             d="m 5666.4688,-824.75 c -18.7539,0.27032 -32.5626,7.375 -32.5626,7.375 0,0 -614.8148,48.46963 -666.4374,50.78784 -51.6233,2.31817 -680.4071,-72.37487 -680.4071,-72.37487 -66.9352,-17.28367 -77.9046,109.47222 -114.4519,175.24328 27.5167,8.72274 30.0777,25.375 30.0777,25.375 0,0 -21.5536,15.87942 -47.7813,19.5 -3.6623,115.23919 33.8085,229.92563 75.5938,237.125 84.1712,14.50218 818.8773,18.24317 868.1562,11.23083 49.2792,-7.01233 607.5718,-11.44541 617.1563,-12.76208 25.3318,-3.47993 41.581,-40.78202 50.0625,-91.6875 l -13.5,-5.78125 c 0,0 9.2682,-7.40595 16.7188,-17.375 3.3336,-29.10294 4.48,-56.47673 3.6874,-88.57717 -18.1979,-6.73168 -41.4915,-20.98756 -43.625,-28.45408 -2.0777,-7.2721 17.9576,-17.11992 40.5626,-28.78125 -3.8488,-41.414 -10.9496,-79.75476 -20.875,-107.71875 -21.6713,-61.05583 -56.6756,-73.49544 -82.375,-73.125 z"
             transform="matrix(0.26458334,0,0,0.26458334,-6.3049604e-6,18.562493)"
             id="path13925" />
          <path
             inkscape:connector-curvature="0"
             style="color:#000000;fill:#f1e3a6;fill-opacity:1;fill-rule:nonzero;stroke:none;stroke-width:5.29166698;marker:none;visibility:visible;display:inline;overflow:visible;enable-background:accumulate"
             d="m 5666.4688,-824.75 c -18.7539,0.27032 -32.5626,7.375 -32.5626,7.375 0,0 -614.8148,48.46963 -666.4374,50.78784 -51.6233,2.31817 -688.6196,-72.37487 -688.6196,-72.37487 -41.1244,-11.91091 -111.9279,111.81865 -120.318,175.24328 27.5167,8.72274 44.1563,25.375 44.1563,25.375 0,0 -21.5536,15.87942 -47.7813,19.5 -3.6623,115.23919 33.8085,229.92563 75.5938,237.125 84.1712,14.50218 818.8773,45.04359 868.1562,38.03125 49.2792,-7.01233 607.5718,-38.24583 617.1563,-39.5625 25.3274,-3.47933 41.5485,-40.79473 50.0313,-91.6875 l -13.4688,-5.78125 c 0,0 9.2683,-7.40595 16.7188,-17.375 2.9791,-26.00581 4.2371,-54.43204 3.9062,-83.09375 l -4.0312,-7.375 c 0,0 -33.1788,-16.58203 -38.1563,-23.21875 -4.6623,-6.21628 1.2815,-9.80327 38.8125,-33.375 -3.872,-40.93877 -10.955,-78.78427 -20.7812,-106.46875 -21.6713,-61.05583 -56.6756,-73.49544 -82.375,-73.125 z"
             transform="matrix(0.26458334,0,0,0.26458334,-6.3049604e-6,18.562493)"
             id="path13927"
             sodipodi:nodetypes="scsccccssscccccccss" />
          <path
             inkscape:connector-curvature="0"
             style="opacity:0.37168142;color:#000000;fill:#a0892c;fill-opacity:1;fill-rule:nonzero;stroke:none;stroke-width:40;marker:none;visibility:visible;display:inline;overflow:visible;enable-background:accumulate"
             d="m 4155.4062,-575.53125 c 5.3478,99.12242 38.5708,187.5198 75.0938,193.8125 84.1712,14.50218 818.8773,45.04359 868.1562,38.03125 49.2791,-7.01233 607.5718,-38.24583 617.1563,-39.5625 25.3285,-3.47947 41.5555,-40.79382 50.0313,-91.6875 l -13.4688,-5.78125 c 0,0 9.2417,-7.39261 16.6875,-17.34375 2.1361,-18.65106 3.3986,-38.53575 3.8125,-58.875 -7.263,20.40367 -19.8856,34.46077 -33.5,46.5625 -21.1179,18.77147 -483.372,84.46875 -567.8438,84.46875 -84.4716,0 -903.3711,-44.57765 -933.875,-58.65625 -24.4279,-11.27445 -63.8782,-49.62298 -82.25,-90.96875 z"
             transform="matrix(0.26458334,0,0,0.26458334,-6.3049604e-6,18.562493)"
             id="path13929" />
          <path
             style="color:#000000;fill:#fcf2cc;fill-opacity:1;fill-rule:nonzero;stroke:none;stroke-width:40;marker:none;visibility:visible;display:inline;overflow:visible;enable-background:accumulate"
             d="m 1281.8125,-698.375 c -18.754,0.23611 -32.5625,6.4375 -32.5625,6.4375 0,0 -595.76735,39.75643 -663.625,44.22351 -1.07711,0.0709 -2.0059,0.0934 -2.8125,0.125 -0.54317,0.0213 -1.17033,0.0453 -1.84375,0.0312 -62.76354,0.12615 -686.77857,-63.23961 -686.77857,-63.23961 -39.82523,-10.07499 -107.66182,91.83183 -119.37768,147.7036 -0.004,0.0197 0.004,0.0428 0,0.0625 -0.17507,0.90387 -0.34787,1.78027 -0.5,2.65625 -0.002,0.01 0.002,0.0213 0,0.0312 -0.15353,0.88531 -0.3079,1.76931 -0.4375,2.625 0.83539,0.2313 1.65372,0.47532 2.46875,0.71875 0.0192,0.006 0.0433,-0.006 0.0625,0 0.79526,0.23793 1.56819,0.50167 2.34375,0.75 0.86752,0.27771 1.71985,0.55447 2.5625,0.84375 0.69529,0.23886 1.41576,0.473 2.09375,0.71875 0.0833,0.0302 0.16692,0.0634 0.25,0.0937 1.41402,0.51589 2.78831,1.05411 4.125,1.59375 0.12281,0.0496 0.25285,0.10651 0.375,0.15625 1.28162,0.52213 2.54232,1.05759 3.75,1.59375 0.3263,0.14484 0.64793,0.29197 0.96875,0.4375 0.9778,0.44383 1.94885,0.8962 2.875,1.34375 1.23579,0.59699 2.42085,1.18605 3.5625,1.78125 0.89278,0.46544 1.72869,0.94712 2.5625,1.40625 0.23161,0.12759 0.49174,0.24812 0.71875,0.375 0.21468,0.11996 0.44572,0.25576 0.65625,0.375 0.80028,0.45374 1.60409,0.90339 2.34375,1.34375 -20.529,-20.82538 -7.79145,-18.52006 -17.40625,-23.25 -9.5574,-4.70167 42.23453,-98.77199 102.22143,-123.67235 0,0 591.29617,40.22398 581.34107,46.02086 -9.9552,5.79688 -3.2998,17.41406 -28.1875,20.3125 -24.8877,2.89844 -92.91305,27.54297 -71.34375,26.09375 21.5694,-1.44921 177.5117,-43.49609 170.875,-36.25 -6.6367,7.2461 -8.29305,42.00781 -1.65625,33.3125 6.6367,-8.69532 28.20125,-34.73438 38.15625,-28.9375 9.9551,5.79688 190.81655,30.41016 170.90625,26.0625 -19.9101,-4.34766 -112.82715,-37.6875 -104.53125,-37.6875 8.2959,0 539.23435,-19.47741 565.78125,-26.72351 26.5469,-7.2461 84.625,-10.125 84.625,-10.125 19.9102,10.14453 66.3633,78.27734 73,105.8125 6.6368,27.53517 -36.5137,44.92187 -46.4688,50.71875 -9.9551,5.79687 49.8036,31.84765 54.7813,39.09375 1.9802,2.88271 6.063,11.98018 10.4687,21.5 0.018,-0.64464 0.016,-1.29179 0.031,-1.9375 0.033,-1.31168 0.07,-2.62231 0.094,-3.9375 0.01,-0.48802 0.024,-0.98028 0.031,-1.46875 0.035,-2.33517 0.056,-4.6554 0.062,-7 0,-1.14369 0,-2.29213 0,-3.4375 0,-1.98554 0,-3.94717 -0.031,-5.9375 l -4.0313,-6.4375 c 0,0 -33.1787,-14.48437 -38.1563,-20.28125 -0.2913,-0.33935 -0.5465,-0.67377 -0.75,-1 -0.8136,-1.30493 -0.8788,-2.55044 0.125,-4.03125 0.1255,-0.1851 0.2467,-0.36923 0.4063,-0.5625 3.3525,-4.05876 14.4015,-10.05106 39.0313,-23.5625 -3.8721,-35.75819 -10.9551,-68.81884 -20.7813,-93 -21.6714,-53.32955 -56.6756,-64.19856 -82.375,-63.875 z m -1467.09375,164.75 c -0.58483,0.32958 -1.17597,0.63849 -1.90625,1.03125 -0.69953,0.37623 -1.45664,0.79675 -2.28125,1.21875 -0.24697,0.12639 -0.46104,0.2452 -0.71875,0.375 -0.61804,0.31232 -1.22458,0.6071 -1.90625,0.9375 -0.28837,0.13966 -0.5449,0.26414 -0.84375,0.40625 -0.69991,0.33344 -1.39551,0.65393 -2.15625,1 7.9258,1.37859 12.8875,0.61557 9.8125,-4.96875 z"
             transform="matrix(0.26458334,0,0,0.30291567,1160.109,11.896745)"
             id="path13931"
             inkscape:connector-curvature="0"
             sodipodi:nodetypes="ccscccccccccccccssccccsccccscssssssssscssccccccccccccccssccscccccc" />
          <path
             inkscape:connector-curvature="0"
             style="color:#000000;fill:#ddcb81;fill-opacity:1;fill-rule:nonzero;stroke:none;stroke-width:5.29166698;marker:none;visibility:visible;display:inline;overflow:visible;enable-background:accumulate"
             d="m 588.4375,-2446.2188 c -20.07019,30.2342 -35.92599,64.8885 -39.625,89.3126 27.5167,7.6189 44.15625,22.1562 44.15625,22.1562 0,0 -21.55355,13.8688 -47.78125,17.0312 -3.6623,100.6563 33.80845,200.8367 75.59375,207.125 84.1712,12.6671 818.87735,39.3438 868.15625,33.2188 49.2792,-6.125 607.5717,-33.4124 617.1563,-34.5625 25.3274,-3.039 41.5484,-35.6412 50.0312,-80.0937 l -13.4688,-5.0626 c 0,0 9.2683,-6.4487 16.7188,-15.1562 2.9791,-22.7149 4.2372,-47.559 3.9062,-72.5938 l -4.0312,-6.4374 c 0,0 -33.1787,-14.4844 -38.1562,-20.2813 -4.6624,-5.4296 1.2814,-8.5674 38.8124,-29.1563 -3.872,-35.7581 -10.955,-68.8188 -20.7812,-93 -0.3727,-0.9172 -0.7445,-1.7952 -1.125,-2.6874 -5.9088,3.3497 -12.4033,7.2304 -19.2188,11.125 -23.2286,13.2734 -320.2176,73.0019 -391.5624,89.5937 -71.3448,16.5918 -444.6826,41.4892 -535.9376,29.875 -86.7262,-11.0379 -552.54688,-120.976 -602.8437,-140.4063 z"
             transform="matrix(0.26458334,0,0,0.30291567,955.06902,556.90194)"
             id="path14241"
             sodipodi:nodetypes="ccccssscccccccscsssc" />
        </g>
        <path
           transform="matrix(0.26458334,0,0,0.26458334,-6.3049604e-6,18.562493)"
           d="m 2649.7092,-518.88062 c 0,14.66144 -11.8854,26.54687 -26.5468,26.54687 -14.6615,0 -26.5469,-11.88543 -26.5469,-26.54687 0,-14.66143 11.8854,-26.54686 26.5469,-26.54686 14.6614,0 26.5468,11.88543 26.5468,26.54686 z"
           sodipodi:ry="26.546869"
           sodipodi:rx="26.546869"
           sodipodi:cy="-518.88062"
           sodipodi:cx="2623.1624"
           id="path13937"
           style="color:#000000;fill:#d3c179;fill-opacity:1;fill-rule:nonzero;stroke:none;stroke-width:40;marker:none;visibility:visible;display:inline;overflow:visible;enable-background:accumulate"
           sodipodi:type="arc" />
        <path
           transform="matrix(0.26458334,0,0,0.26458334,-6.3049604e-6,18.562493)"
           d="m 2716.0764,-555.38257 c 0,6.41438 -5.1999,11.61426 -11.6142,11.61426 -6.4144,0 -11.6143,-5.19988 -11.6143,-11.61426 0,-6.41437 5.1999,-11.61425 11.6143,-11.61425 6.4143,0 11.6142,5.19988 11.6142,11.61425 z"
           sodipodi:ry="11.614255"
           sodipodi:rx="11.614255"
           sodipodi:cy="-555.38257"
           sodipodi:cx="2704.4622"
           id="path13939"
           style="color:#000000;fill:#d3c179;fill-opacity:1;fill-rule:nonzero;stroke:none;stroke-width:40;marker:none;visibility:visible;display:inline;overflow:visible;enable-background:accumulate"
           sodipodi:type="arc" />
        <path
           transform="matrix(0.26458334,0,0,0.26458334,-6.3049604e-6,18.562493)"
           d="m 2774.1477,-523.95062 c 0,11.86134 -5.9427,21.47687 -13.2734,21.47687 -7.3307,0 -13.2735,-9.61553 -13.2735,-21.47687 0,-11.86135 5.9428,-21.47687 13.2735,-21.47687 7.3307,0 13.2734,9.61552 13.2734,21.47687 z"
           sodipodi:ry="21.476868"
           sodipodi:rx="13.273435"
           sodipodi:cy="-523.95062"
           sodipodi:cx="2760.8743"
           id="path13941"
           style="color:#000000;fill:#d3c179;fill-opacity:1;fill-rule:nonzero;stroke:none;stroke-width:40;marker:none;visibility:visible;display:inline;overflow:visible;enable-background:accumulate"
           sodipodi:type="arc" />
        <path
           transform="matrix(0.26458334,0,0,0.26458334,-6.3049604e-6,18.562493)"
           d="m 1360.527,-511.41431 c 0,21.53398 -17.4568,38.99072 -38.9907,38.99072 -21.534,0 -38.9908,-17.45674 -38.9908,-38.99072 0,-21.53397 17.4568,-38.99071 38.9908,-38.99071 21.5339,0 38.9907,17.45674 38.9907,38.99071 z"
           sodipodi:ry="38.990715"
           sodipodi:rx="38.990715"
           sodipodi:cy="-511.41431"
           sodipodi:cx="1321.5363"
           id="path13943"
           style="color:#000000;fill:#d3c179;fill-opacity:1;fill-rule:nonzero;stroke:none;stroke-width:40;marker:none;visibility:visible;display:inline;overflow:visible;enable-background:accumulate"
           sodipodi:type="arc" />
        <path
           transform="matrix(0.26458334,0,0,0.26458334,-6.3049604e-6,18.562493)"
           d="m 1395.3697,-523.85815 c 0,4.58169 -3.7142,8.29589 -8.2958,8.29589 -4.5817,0 -8.2959,-3.7142 -8.2959,-8.29589 0,-4.5817 3.7142,-8.2959 8.2959,-8.2959 4.5816,0 8.2958,3.7142 8.2958,8.2959 z"
           sodipodi:ry="8.2958965"
           sodipodi:rx="8.2958965"
           sodipodi:cy="-523.85815"
           sodipodi:cx="1387.0739"
           id="path13945"
           style="color:#000000;fill:#d3c179;fill-opacity:1;fill-rule:nonzero;stroke:none;stroke-width:40;marker:none;visibility:visible;display:inline;overflow:visible;enable-background:accumulate"
           sodipodi:type="arc" />
        <path
           transform="matrix(0.26458334,0,0,0.26458334,-6.3049604e-6,18.562493)"
           d="m 1375.4596,-557.04175 c 0,6.41438 -5.1999,11.61426 -11.6143,11.61426 -6.4143,0 -11.6142,-5.19988 -11.6142,-11.61426 0,-6.41437 5.1999,-11.61425 11.6142,-11.61425 6.4144,0 11.6143,5.19988 11.6143,11.61425 z"
           sodipodi:ry="11.614255"
           sodipodi:rx="11.614255"
           sodipodi:cy="-557.04175"
           sodipodi:cx="1363.8453"
           id="path13947"
           style="color:#000000;fill:#d3c179;fill-opacity:1;fill-rule:nonzero;stroke:none;stroke-width:40;marker:none;visibility:visible;display:inline;overflow:visible;enable-background:accumulate"
           sodipodi:type="arc" />
        <path
           transform="matrix(0.26458334,0,0,0.26458334,-6.3049604e-6,18.562493)"
           d="m 1262.6355,-562.01929 c 0,10.07974 -8.1712,18.25098 -18.251,18.25098 -10.0797,0 -18.251,-8.17124 -18.251,-18.25098 0,-10.07973 8.1713,-18.25097 18.251,-18.25097 10.0798,0 18.251,8.17124 18.251,18.25097 z"
           sodipodi:ry="18.250973"
           sodipodi:rx="18.250973"
           sodipodi:cy="-562.01929"
           sodipodi:cx="1244.3845"
           id="path13949"
           style="color:#000000;fill:#d3c179;fill-opacity:1;fill-rule:nonzero;stroke:none;stroke-width:40;marker:none;visibility:visible;display:inline;overflow:visible;enable-background:accumulate"
           sodipodi:type="arc" />
        <path
           transform="matrix(0.26458334,0,0,0.26458334,-6.3049604e-6,18.562493)"
           d="m 1680.7486,-462.46851 c 0,16.49411 -13.3711,29.86523 -29.8652,29.86523 -16.4941,0 -29.8652,-13.37112 -29.8652,-29.86523 0,-16.49411 13.3711,-29.86522 29.8652,-29.86522 16.4941,0 29.8652,13.37111 29.8652,29.86522 z"
           sodipodi:ry="29.865227"
           sodipodi:rx="29.865227"
           sodipodi:cy="-462.46851"
           sodipodi:cx="1650.8834"
           id="path13951"
           style="color:#000000;fill:#d3c179;fill-opacity:1;fill-rule:nonzero;stroke:none;stroke-width:40;marker:none;visibility:visible;display:inline;overflow:visible;enable-background:accumulate"
           sodipodi:type="arc" />
        <path
           transform="matrix(0.26458334,0,0,0.26458334,-6.3049604e-6,18.562493)"
           style="color:#000000;fill:#fcf1c6;fill-opacity:1;fill-rule:nonzero;stroke:none;stroke-width:40;marker:none;visibility:visible;display:inline;overflow:visible;enable-background:accumulate"
           d="m 1380.4026,-836.53518 c 0,5.95621 -7.7998,10.78467 -17.4214,10.78467 -9.6216,0 -17.4214,-4.82846 -17.4214,-10.78467 0,-5.9562 7.7998,-10.78466 17.4214,-10.78466 9.6216,0 17.4214,4.82846 17.4214,10.78466 z"
           id="path13953"
           inkscape:connector-curvature="0"
           sodipodi:nodetypes="sssss" />
        <path
           transform="matrix(0.26458334,0,0,0.26458334,-6.3049604e-6,18.562493)"
           d="m 1710.6139,-771.90546 c 0,8.70523 -14.8568,15.76221 -33.1836,15.76221 -18.3268,0 -33.1836,-7.05698 -33.1836,-15.76221 0,-8.70522 14.8568,-15.7622 33.1836,-15.7622 18.3268,0 33.1836,7.05698 33.1836,15.7622 z"
           sodipodi:ry="15.762203"
           sodipodi:rx="33.183586"
           sodipodi:cy="-771.90546"
           sodipodi:cx="1677.4303"
           id="path13955"
           style="color:#000000;fill:#fcf1c6;fill-opacity:1;fill-rule:nonzero;stroke:none;stroke-width:40;marker:none;visibility:visible;display:inline;overflow:visible;enable-background:accumulate"
           sodipodi:type="arc" />
        <path
           transform="matrix(0.26458334,0,0,0.26458334,-6.3049604e-6,18.562493)"
           d="m 1828.4155,-758.63202 c 0,3.20719 -7.7998,5.80713 -17.4214,5.80713 -9.6215,0 -17.4213,-2.59994 -17.4213,-5.80713 0,-3.20719 7.7998,-5.80713 17.4213,-5.80713 9.6216,0 17.4214,2.59994 17.4214,5.80713 z"
           sodipodi:ry="5.8071275"
           sodipodi:rx="17.421383"
           sodipodi:cy="-758.63202"
           sodipodi:cx="1810.9941"
           id="path13957"
           style="color:#000000;fill:#fcf1c6;fill-opacity:1;fill-rule:nonzero;stroke:none;stroke-width:40;marker:none;visibility:visible;display:inline;overflow:visible;enable-background:accumulate"
           sodipodi:type="arc" />
        <path
           transform="matrix(0.26458334,0,0,0.26458334,-6.3049604e-6,18.562493)"
           d="m 2711.0989,-820.85126 c 0,7.33072 -9.6569,13.27344 -21.5694,13.27344 -11.9124,0 -21.5693,-5.94272 -21.5693,-13.27344 0,-7.33071 9.6569,-13.27343 21.5693,-13.27343 11.9125,0 21.5694,5.94272 21.5694,13.27343 z"
           sodipodi:ry="13.273435"
           sodipodi:rx="21.56933"
           sodipodi:cy="-820.85126"
           sodipodi:cx="2689.5295"
           id="path13959"
           style="color:#000000;fill:#fcf1c6;fill-opacity:1;fill-rule:nonzero;stroke:none;stroke-width:40;marker:none;visibility:visible;display:inline;overflow:visible;enable-background:accumulate"
           sodipodi:type="arc" />
      </g>
    </g>
    <g
       id="g5189"
       clip-path="url(#clipPath5234)"
       transform="matrix(3.5494208,1.29863,-1.29863,3.5494208,203.9308,3962.5173)">
      <path
         sodipodi:nodetypes="ccccc"
         transform="matrix(0.26458334,0,0,0.26458334,-371.47125,-1254.9848)"
         inkscape:connector-curvature="0"
         id="path4679"
         d="m 521.81189,1391.7898 61.83517,-54.7041 4.11722,4.9287 -28.62085,21.9841 z"
         style="color:#000000;fill:#cab4e8;fill-opacity:1;fill-rule:nonzero;stroke:#120f06;stroke-width:22;stroke-linejoin:round;stroke-miterlimit:4;stroke-opacity:1;stroke-dasharray:none;marker:none;visibility:visible;display:inline;overflow:visible;enable-background:accumulate" />
    </g>
    <g
       transform="matrix(-3.5494208,1.29863,1.29863,3.5494208,1010.6937,3963.2254)"
       clip-path="url(#clipPath5234)"
       id="g5238">
      <path
         style="color:#000000;fill:#cab4e8;fill-opacity:1;fill-rule:nonzero;stroke:#120f06;stroke-width:22;stroke-linejoin:round;stroke-miterlimit:4;stroke-opacity:1;stroke-dasharray:none;marker:none;visibility:visible;display:inline;overflow:visible;enable-background:accumulate"
         d="m 521.81189,1391.7898 61.83517,-54.7041 4.11722,4.9287 -28.62085,21.9841 z"
         id="path5240"
         inkscape:connector-curvature="0"
         transform="matrix(0.26458334,0,0,0.26458334,-371.47125,-1254.9848)"
         sodipodi:nodetypes="ccccc" />
    </g>
    <g
       id="g5258"
       clip-path="url(#clipPath5234)"
       transform="matrix(-1.6818783,-0.73677172,-0.73677172,1.6818783,-424.61967,1837.3496)">
      <path
         sodipodi:nodetypes="ccccc"
         transform="matrix(0.26458334,0,0,0.26458334,-371.47125,-1254.9848)"
         inkscape:connector-curvature="0"
         id="path5260"
         d="m 521.81189,1391.7898 61.83517,-54.7041 4.11722,4.9287 -28.62085,21.9841 z"
         style="color:#000000;fill:#cab4e8;fill-opacity:1;fill-rule:nonzero;stroke:#120f06;stroke-width:22;stroke-linejoin:round;stroke-miterlimit:4;stroke-opacity:1;stroke-dasharray:none;marker:none;visibility:visible;display:inline;overflow:visible;enable-background:accumulate" />
    </g>
    <g
       id="g5529"
       clip-path="url(#clipPath5234-2)"
       transform="matrix(0.96236621,-0.92590106,0.69213643,1.2873992,897.68259,1509.1808)">
      <path
         sodipodi:nodetypes="ccccc"
         transform="matrix(0.26458334,0,0,0.26458334,-371.47125,-1254.9848)"
         inkscape:connector-curvature="0"
         id="path5531"
         d="m 521.81189,1391.7898 61.83517,-54.7041 4.11722,4.9287 -28.62085,21.9841 z"
         style="color:#000000;fill:#cab4e8;fill-opacity:1;fill-rule:nonzero;stroke:#120f06;stroke-width:22;stroke-linejoin:round;stroke-miterlimit:4;stroke-opacity:1;stroke-dasharray:none;marker:none;visibility:visible;display:inline;overflow:visible;enable-background:accumulate" />
      <path
         sodipodi:nodetypes="ccccc"
         transform="matrix(0.26458334,0,0,0.26458334,-371.47125,-1254.9848)"
         inkscape:connector-curvature="0"
         id="path5533"
         d="m 605.83137,1323.5266 -103.22161,65.1879 23.26801,29.4899 107.07277,-65.4236 z"
         style="color:#000000;fill:#f1e3a6;fill-opacity:1;fill-rule:nonzero;stroke:none;stroke-width:30;marker:none;visibility:visible;display:inline;overflow:visible;enable-background:accumulate" />
    </g>
  </g>
</svg>
